<svg width="25" height="10" viewBox="0 0 25 10" fill="none" xmlns="http://www.w3.org/2000/svg">
<path d="M6.64251 0C4.94412 0 3.44709 0.875541 2.57666 2.19823H0.511513C0.229073 2.19823 0 2.4273 0 2.70974C0 2.99218 0.229073 3.22126 0.511513 3.22126H2.06421C1.8793 3.7349 1.77785 4.2881 1.77785 4.86458C1.77785 7.54696 3.96014 9.72924 6.64251 9.72924C9.32489 9.72924 11.5072 7.54696 11.5072 4.86458C11.5072 2.1822 9.32489 0 6.64251 0ZM6.64251 8.70622C4.52425 8.70622 2.80088 6.98284 2.80088 4.86458C2.80088 2.74632 4.52425 1.02294 6.64251 1.02294C8.76078 1.02294 10.4841 2.74632 10.4841 4.86458C10.4841 6.98284 8.76078 8.70622 6.64251 8.70622Z" fill="white"/>
<path d="M24.4885 2.19823H22.1824C21.9355 1.82193 21.6366 1.4781 21.2906 1.17972C20.4087 0.41893 19.2808 0 18.1147 0C16.3729 0 14.8427 0.92081 13.9833 2.30062C13.6102 1.82363 13.0299 1.51613 12.3787 1.51613C12.0375 1.51613 11.6998 1.60232 11.402 1.76523C11.1542 1.90087 11.0632 2.2117 11.1988 2.45961C11.3344 2.70736 11.6452 2.79823 11.8931 2.66277C12.0429 2.58076 12.2063 2.53924 12.3787 2.53924C12.9376 2.53924 13.3924 2.99397 13.3924 3.55289C13.3924 3.58767 13.3959 3.62169 13.4025 3.65459C13.303 4.04164 13.2501 4.4471 13.2501 4.86475C13.2501 7.54713 15.4324 9.72941 18.1147 9.72941C20.1287 9.72941 21.9585 8.46359 22.6684 6.57968C22.768 6.31532 22.6345 6.02026 22.37 5.92077C22.1057 5.82102 21.8106 5.95461 21.711 6.21907C21.1505 7.7068 19.7053 8.70647 18.1147 8.70647C15.9965 8.70647 14.2731 6.9831 14.2731 4.86483C14.2731 2.74657 15.9965 1.0232 18.1147 1.0232C20.0183 1.0232 21.6142 2.38544 21.9095 4.26236C21.9534 4.54139 22.215 4.73193 22.4943 4.68811C22.7734 4.6442 22.964 4.38239 22.9202 4.10336C22.8727 3.8014 22.7958 3.50642 22.6934 3.22143H24.4885C24.771 3.22143 25.0001 2.99235 25.0001 2.70991C25.0001 2.42747 24.771 2.19823 24.4885 2.19823Z" fill="white"/>
</svg>
