<svg xmlns="http://www.w3.org/2000/svg" xmlns:xlink="http://www.w3.org/1999/xlink" xmlns:fi="http://pattern.flaticon.com/" x="0" y="0" width="700" height="350" viewBox="0 0 700 350"><rect x="0px" y="0px" width="100%" height="100%" opacity="1" fill="#ffffff"/><defs><g transform="matrix(0.14872173964977264 0 0 0.14872173964977264 308.9999992919742 11)" id="L1_92"><path d="M375.208,350.702l-12.288-77.824c-6.464-42.822-23.135-82.132-48.238-115.175l15.982,0.999     c2.56,0,4.608-2.048,5.12-4.608c0.512-3.072-1.536-5.632-4.608-5.632l-24.064-1.536c-0.397-0.066-0.785-0.088-1.16-0.072     c-2.219-2.6-4.495-5.154-6.825-7.664c4.657-2.28,8.881-5.064,13.105-8.137c2.048-1.536,2.56-5.12,1.024-7.168     c-1.536-2.048-5.12-2.56-7.168-1.024c-4.405,3.426-9.283,6.373-14.623,8.417l-3.297-3.297c-3.363-3.363-6.952-6.498-10.757-9.274     c7.528-5.557,15.849-10.02,24.581-13.254c0.586-0.234,1.114-0.58,1.575-0.998c5.326-2.714,8.665-10.784,8.665-21.53     c0-11.264-5.12-22.528-13.312-22.528c-0.995,0-1.868,0.235-2.614,0.63l-11.722,2.442c-8.744,1.785-17.295,4.395-25.58,7.71     c0.228-12.464-3.523-23.5-11.284-31.262c-6.97-6.97-16.439-10.561-27.072-11.033c1.041-2.554,2.211-5.044,3.52-7.399     l6.656-11.264c1.024-2.56,0.512-5.632-2.048-7.168c-2.56-1.536-5.632-0.512-7.168,2.048l-6.656,11.264     c-2.391,4.383-4.16,8.767-5.793,13.15c-1.503,0.224-3.02,0.515-4.544,0.846c0.177-6.202,1.231-12.403,3.169-18.605     c0.512-3.072-1.024-5.632-3.584-6.656c-3.072-0.512-5.632,1.024-6.656,3.584c-2.72,8.16-3.829,16.323-3.693,24.838     c-1.518,0.565-3.038,1.196-4.556,1.86c-0.581-11.419-3.555-22.659-8.646-32.842c-1.024-2.56-4.096-3.072-6.656-2.048     c-2.56,1.024-3.072,4.096-2.048,6.656c5.373,10.257,7.943,21.448,7.724,33.125c-7.672,4.453-15.158,10.149-22.06,17.051     c-9.154,9.154-16.286,19.469-21.117,29.951c0.521-4.997,1.413-10.407,2.685-16.639l2.048-10.24     c0.111-0.664,0.096-1.302-0.012-1.903c0.001-0.05,0.012-0.095,0.012-0.145c0-9.728-16.896-14.336-33.28-14.336     c-16.384,0-33.28,4.096-33.28,14.336c0,0.012,0.003,0.022,0.003,0.033c-0.129,0.671-0.134,1.36-0.003,2.015l1.536,4.608     c6.144,30.72,6.144,46.592,1.024,76.8l-5.632,32.768c-0.052,0.315-0.072,0.622-0.073,0.925c-0.724,1.275-1.417,2.567-2.069,3.88     c-8.096-1.564-15.749-4.071-22.947-8.389l-11.264-6.656c-2.56-1.024-5.632-0.512-7.168,2.048     c-1.024,2.56-0.512,5.632,2.048,7.168l11.264,6.656c7.459,3.949,15.67,7.135,23.988,8.935c-0.888,2.535-1.665,5.11-2.336,7.718     c-3.09,0.437-6.396,0.931-9.365,1.779L32.68,204.27c-2.56,0.512-4.096,3.584-3.584,6.144c1.024,2.048,3.072,3.584,5.12,3.584     c0.512,0,1.024,0,0.512,0.512l20.992-5.632c1.797-0.513,3.466-0.898,5.135-1.219c-4.407,29.794,3.3,61.267,14.833,76.995     c2.243,3.048,4.336,5.851,6.31,8.448c-0.104,0.403-0.166,0.829-0.166,1.28c-1.024,16.896-3.584,33.792-7.168,48.64l-3.584,16.896     c-0.089,0.447-0.096,0.909-0.041,1.37c-1.149,9.036,11.991,15.558,25.641,18.086c3.584,0.512,8.704,1.024,13.312,1.024     c9.179,0,18.354-2.035,19.944-8.628c0.239-0.484,0.436-1.01,0.536-1.612l3.246-25.966     c32.476,24.306,70.307,40.177,111.442,46.446l77.824,12.288c2.048,0.512,4.608,0.512,7.168,0.512     c11.776,0,23.552-4.608,32.256-12.8C372.648,379.886,377.768,365.55,375.208,350.702z M281,135.15l4.608,4.608     c6.726,6.726,13.019,13.831,18.859,21.281c0.012,0.248,0.037,0.494,0.085,0.735c1.536,6.656-0.512,13.312-4.608,17.408     c-3.584,3.584-9.216,5.12-15.872,4.608c-8.704-1.024-16.896-5.632-22.016-13.312c-3.882-5.607-8.864-10.115-14.621-13.848     c4.177-10.344,10.121-19.541,17.693-27.112c1.281-1.345,2.602-2.65,3.961-3.914C273.433,128.288,277.221,131.372,281,135.15z      M297.638,71.418l1.203-0.251c1.174,1.642,3.151,5.909,3.151,11.759c0,7.057-1.983,11.13-3.022,12.232     c-2.453-0.563-5.17-5.49-5.17-12.232C293.8,77.399,295.628,73.101,297.638,71.418z M165.8,64.494     c13.921-13.921,30.26-22.528,44.828-24.945c0.238,0.135,0.48,0.265,0.74,0.369c0.512,0,1.024,0,1.536,0     c0.99,0,1.978-0.365,2.852-0.967c10.135-0.665,19.096,1.924,25.308,8.135c6.446,6.446,9.516,16.738,7.844,28.542     c-9.439,4.57-18.446,10.092-26.894,16.411c-1.048-1.556-2.42-2.873-3.989-3.994c-7.168-5.12-17.92-0.512-25.088,9.728     c-3.389,5.325-5.857,13.398-0.057,23.351c-2.686,3.506-5.301,7.083-7.623,10.953l-2.305,3.841     c-10.507-8.055-25.192-10.903-41.226-8.546C136.72,109.098,146.463,83.831,165.8,64.494z M107.944,53.23     c14.528,0.484,20.805,3.714,22.743,5.363c-1.549,2.332-9.531,6.413-23.255,6.413c-11.755,0-19.295-2.996-22.194-5.322     l-0.235-0.939C86.676,56.664,92.861,52.728,107.944,53.23z M83.88,175.086c0.279-0.349,0.506-0.698,0.692-1.046     c0.623-0.717,1.245-1.404,1.868-2.026c10.752-11.776,23.04-20.48,36.352-25.088c1.536-0.512,2.048-1.536,1.536-3.072     c-0.512-1.536-1.536-2.048-3.072-1.536c-13.716,5.08-26.925,13.693-38.133,25.829c-0.088-0.076-0.174-0.154-0.267-0.229     c-0.063-0.051-0.128-0.092-0.192-0.14l4.288-24.948c3.916-25.456,4.076-50.447-0.392-76.757     c5.569,2.332,13.369,3.541,20.872,3.541c8.082,0,16.509-1.402,22.119-4.1l-0.615,3.076c-5.12,27.136-4.096,40.448,3.072,66.56     c0.512,2.048,2.56,3.584,4.608,3.584c0.512,0,1.024,0,1.536,0c0.678-0.136,1.282-0.455,1.797-0.892     c16.628-3.474,30.779-0.324,39.675,8.572c8.192,8.704,12.8,22.528,11.264,37.376c-1.536,20.48-12.8,39.424-30.208,51.712     c-28.16,19.968-37.376,46.08-43.008,61.952c-2.048,5.12-4.608,11.776-5.632,12.8c-3.072,0-12.8-10.752-28.16-31.744     C69.032,258.542,61.352,206.83,83.88,175.086z M120.314,368.482c-0.025,0.048-0.057,0.092-0.082,0.14     c-2.048,1.024-10.752,2.56-21.504,0.512c-10.022-1.503-16.107-5.453-17.322-7.06l3.498-16.492     c2.933-12.151,5.179-26.359,6.46-40.66c3.205,3.816,5.982,6.812,8.458,9.119c0.245,0.471,0.548,0.926,0.954,1.332l4.608,4.096     c6.043,6.124,12.348,11.893,18.893,17.304L120.314,368.482z M355.24,382.958c-8.192,8.192-19.456,12.288-30.72,10.24     l-77.824-12.288c-48.89-7.822-93.571-29.66-129.155-63.264c4.176-3.039,6.615-9.438,9.347-17.632     c0.812-2.437,1.703-5.081,2.727-7.876c11.61,14.673,25.622,26.861,41.305,36.548c0.512,0.512,1.024,0.512,1.536,0.512     c1.024,0,2.048-0.512,2.048-1.024c0.512-1.024,0-3.072-1.024-3.584c-16.044-10.21-30.236-22.734-41.71-37.999     c4.844-11.77,12.395-25.357,26.219-37.317c6.586,10.718,14.067,20.587,23.171,29.236c0.512,0.512,1.536,0.512,2.048,0.512     c0.512,0,1.024,0,2.048-0.512c1.024-1.024,1.024-2.56,0-3.584c-8.824-8.824-16.787-18.499-23.162-29.007     c1.197-0.924,2.423-1.839,3.706-2.737c10.04-6.951,18.266-15.845,24.227-25.964c6.994,9.92,15.128,19.029,24.413,26.988     c0.512,0.512,1.024,0.512,1.536,0.512c0.512,0,1.536,0,1.536-1.024c1.024-1.024,1.024-2.56,0-3.584     c-9.408-8.468-17.509-17.811-24.721-28.007c4.281-8.65,6.977-18.049,7.825-27.801c1.817-15.895-2.017-30.573-10.408-41.192     l3.24-5.4c3.072-4.608,6.144-9.216,9.728-13.312c2.048-2.048,1.536-5.632-0.512-7.168c-0.427-0.427-0.924-0.737-1.452-0.951     c-2.7-4.538-2.86-8.66-0.084-12.361c4.096-6.144,9.216-8.192,11.264-7.168c1.024,1.024,1.536,2.56,1.536,3.584     c0.067,0.334,0.163,0.659,0.281,0.972c0.126,0.957,0.525,1.882,1.255,2.612c1.024,1.536,2.56,2.048,4.096,2.048     s2.56-0.512,3.072-1.024c18.432-15.36,40.448-26.112,64-31.232l4.688-0.977c-1.051,2.853-1.615,6.358-1.615,10.193     c0,6.22,1.471,11.59,4.133,14.663c-13.198,5.7-25.775,14.146-35.877,24.249c-12.8,12.8-21.504,29.184-25.6,48.128l-2.048,9.216     c-0.512,2.56,1.536,5.632,4.096,6.144c0.512,0,0.512,0,1.024,0c2.56,0,4.608-1.536,5.12-3.584l2.048-9.216     c0.406-1.912,0.871-3.793,1.38-5.65c3.757,2.751,6.829,6.114,9.372,9.746c5.146,6.984,12.144,12.37,20.036,15.24l14.268,31.864     c3.584,8.192,6.656,16.384,8.704,25.088c0.512,1.024,1.536,2.048,2.56,2.048c0,0,0.512,0,0.512-0.512     c1.536-0.512,2.56-1.536,2.048-3.072c-2.56-8.704-5.632-17.92-9.216-26.112l-12.34-27.559c1.033,0.179,2.072,0.331,3.124,0.423     c1.536,0,2.56,0,3.584,0c8.704,0,15.872-3.072,20.992-7.68c3.223-3.223,5.476-7.289,6.72-11.727     c19.794,29.319,33.103,63.167,38.848,99.792l12.288,77.824C367.016,363.502,363.432,374.766,355.24,382.958z"/><path d="M169.896,304.11c-1.024-1.024-2.56-1.024-3.584,0c-1.024,1.024-1.024,2.56,0,3.584c3.072,2.56,6.656,5.12,9.728,7.68     c0.512,0.512,1.024,0.512,1.536,0.512c1.024,0,1.536-0.512,2.048-0.512c1.024-1.024,0.512-2.56-0.512-3.584     C176.04,309.23,172.968,306.67,169.896,304.11z"/><path d="M191.912,333.806c-2.56-1.536-5.12-2.56-7.168-3.584c-1.536-0.512-3.072,0-3.584,1.024c-0.512,1.536,0,3.072,1.024,3.584     c2.56,1.536,4.608,2.56,7.168,3.584c0.512,0,0.512,0,1.024,0c1.024,0,2.048-0.512,3.072-1.024     C193.96,335.854,193.448,334.318,191.912,333.806z"/><path d="M137.128,318.958c-1.024-1.024-2.56-1.024-3.584,0c-1.024,1.024-1.024,2.56,0,3.584c3.584,3.072,6.656,6.144,10.24,8.704     c0.512,0.512,1.024,0.512,1.536,0.512c1.024,0,1.536-0.512,2.048-0.512c0.512-1.024,0.512-2.56-0.512-3.584     C143.272,324.59,140.2,322.03,137.128,318.958z"/><path d="M211.88,295.918c-3.584-2.048-7.168-4.608-10.752-7.168c-1.024-1.024-2.56-0.512-3.584,0.512s-0.512,2.56,0.512,3.584     c3.584,2.56,7.168,5.12,10.752,7.168c0.512,0.512,1.024,0.512,1.536,0.512c1.024,0,2.048-0.512,2.56-1.024     C213.416,298.478,212.904,296.43,211.88,295.918z"/><path d="M227.24,304.622c-2.048-1.024-4.608-2.56-6.656-3.584c-1.536-0.512-3.072-0.512-3.584,1.024     c-0.512,1.536,0,3.072,1.024,3.584c2.56,1.536,4.608,2.56,7.168,3.584c0.512,0,0.512,0,1.024,0c1.024,0,1.536-0.512,2.048-1.024     C229.288,306.671,228.264,305.134,227.24,304.622z"/><path d="M295.336,345.07c-1.536,0-3.072,0.512-3.072,2.048l-0.512,3.584c0,1.536,0.512,2.56,2.56,3.072     c1.024,0,2.048-1.024,2.56-2.048l0.512-3.584C297.896,346.606,296.872,345.582,295.336,345.07z"/><path d="M319.912,322.542c-1.536,0-3.072,0.512-3.072,2.048l-2.56,13.824c0,1.536,0.512,2.56,2.56,3.072     c1.024,0,2.048-1.024,2.56-2.048l2.56-13.824C322.472,324.078,321.448,322.542,319.912,322.542z"/><path d="M301.48,311.79c-1.536,0-3.072,0.512-3.072,2.048l-3.584,19.456c0,1.024,1.024,2.56,2.56,3.072     c1.536,0,2.56-1.024,2.56-2.56l3.584-18.944C304.04,313.326,303.016,311.79,301.48,311.79z"/><path d="M287.656,269.294c-1.536,0-2.56,1.024-2.56,2.56c1.024,12.288,0,25.088-2.048,37.376c0,1.536,0.512,2.56,2.56,3.072     c1.536,0,2.56-0.512,2.56-1.536c2.048-12.8,3.072-26.112,2.048-38.912C290.216,270.318,289.192,269.294,287.656,269.294z"/><path d="M301.48,261.102c-1.536,0.512-2.048,1.536-2.048,3.072c0.512,3.584,0.512,7.68,1.024,11.776     c0,1.536,1.024,2.56,2.56,2.56c2.048,0,3.072-1.024,3.072-3.072c-0.512-4.096-1.024-8.192-1.536-12.288     C304.04,261.614,303.016,261.102,301.48,261.102z"/><path d="M329.64,260.59c-0.512-1.536-1.536-2.048-3.072-2.048c-1.536,0.512-2.048,1.536-2.048,3.072     c0.512,2.048,1.024,3.584,1.024,5.12c0,1.024,1.536,2.048,2.56,2.048c2.048,0,3.072-1.536,2.56-3.072     C330.152,264.174,330.152,262.126,329.64,260.59z"/><path d="M317.352,248.814c-1.024-3.584-1.536-7.168-2.56-10.752c-0.512-1.536-1.536-2.56-3.072-2.048     c-1.536,0.512-2.56,1.536-2.048,3.072c0.512,3.584,1.536,7.168,2.048,10.752c0.512,1.024,1.536,2.048,2.56,2.048     C315.816,251.886,316.84,250.35,317.352,248.814z"/></g><g transform="matrix(0.13003647327423096 0 0 0.13003647327423096 159 283.00000136512904)" id="L1_93"><path d="M461.361,418.096l-3.072-56.832c-1.536-35.84-6.656-71.168-14.848-105.984l-7.68-32.256     c-9.216-40.448-30.208-76.8-60.416-105.472l-66.048-62.464c-5.632-5.12-12.8-6.656-19.968-4.608     c-6.656,2.048-12.288,7.68-13.824,14.848l-7.168,29.184c-2.636,10.835-5.437,22.844-7.833,35.067     c-3.038-28.306-3.81-57.03-1.895-85.755l0.512-6.144c0.23-1.382-0.061-2.658-0.727-3.646     c-1.327-6.487-9.056-12.738-28.457-12.738c-26.112,0-28.16,10.752-28.16,14.336c0,0.266,0.035,0.514,0.065,0.764     c-0.03,0.253-0.065,0.503-0.065,0.772l1.536,18.432c0.854,13.1,1.216,26.197,1.12,39.209c-0.056,0.228-0.096,0.467-0.096,0.727     c0,0.3,0.023,0.65,0.081,1.037c-0.105,9.787-0.462,19.526-1.105,29.171l-0.512,4.608c-0.427,7.898-1.846,15.614-4.157,23.007     c-0.15-0.846-0.301-1.701-0.451-2.527L182.32,65.84c-1.536-7.168-6.656-12.8-13.824-14.848     c-7.168-2.56-14.336-0.512-19.968,4.096l-56.832,51.2c-29.696,26.112-51.2,60.416-61.952,98.304l-12.288,41.984     c-10.24,34.816-15.36,70.656-16.384,106.496l-1.024,65.024c-0.512,7.168,3.072,13.312,8.704,17.408     c3.584,2.56,7.68,3.584,11.776,3.584c2.56,0,5.12-0.512,7.68-1.536l39.424-15.872c17.408-6.656,35.328-12.8,53.76-16.896     l22.528-5.632c36.864-9.216,62.976-41.984,62.976-79.872v-73.216c0-9.212-0.461-18.423-0.944-27.635     c6.848-6.625,12.568-13.57,16.816-21.005c3.881-6.375,7.004-13.054,9.384-20.03c2.336,6.095,5.348,11.92,9.048,17.47     c3.375,5.304,7.554,10.15,12.358,14.653c-0.042,0.235-0.07,0.471-0.07,0.707c0,10.24,0,20.992,0.512,31.232l4.096,84.992     c1.536,36.352,29.184,67.072,65.536,72.192l14.336,2.048c23.552,3.072,46.592,10.752,67.584,22.528l25.6,14.336     c3.072,1.536,6.144,2.56,9.728,2.56c3.584,0,7.68-1.024,10.752-3.584C458.289,432.432,461.873,425.776,461.361,418.096z      M229.937,31.536c12.8,0,18.432,3.584,18.432,4.608c0,0.317,0.035,0.616,0.078,0.911c-2.819,1.989-8.769,3.533-18.51,3.185     c-8.704-0.512-13.824-2.048-16.384-3.072c-0.455-0.304-1.001-0.653-1.543-1.047c-0.006-0.03-0.02-0.059-0.027-0.089     c0.008-0.135,0.034-0.261,0.034-0.4C212.017,35.12,215.601,31.536,229.937,31.536z M446.513,428.336     c-3.072,2.048-7.168,2.56-10.24,0.512l-25.6-14.336c-22.016-12.288-46.08-20.48-71.168-24.064l-14.336-2.048     c-31.232-4.608-55.296-31.232-56.832-62.976l-4.096-84.48c-0.384-7.673-0.48-15.346-0.504-23.02     c2.619,1.927,5.347,3.796,8.184,5.612c0.512,0.512,1.536,0.512,2.56,0.512c1.536,0,3.072-0.512,4.096-2.048     c1.536-2.56,1.024-5.632-1.536-7.168c-11.264-7.168-20.992-15.872-27.648-25.6c-6.656-9.728-10.24-19.456-12.288-31.232     c0-1.44-0.973-2.719-2.28-3.47c-0.667-0.558-1.467-0.966-2.328-1.138c-2.56-0.512-5.12,1.536-5.632,4.096     c-1.536,12.288-6.144,24.064-12.288,34.816c-5.632,9.728-13.824,18.432-24.064,26.624l-4.608,3.584     c-2.56,1.536-2.56,5.12-1.024,7.168c1.024,1.536,2.56,2.048,4.096,2.048c1.024,0,2.048,0,2.56-1.024l4.575-3.558     c0.307,6.378,0.545,12.897,0.545,19.43v73.216c0,33.28-22.528,61.952-55.296,69.632l-22.528,5.632     c-18.432,4.096-36.864,10.24-54.784,17.408l-39.424,15.872c-2.005,0.859-3.848,1.057-5.623,0.724l24.055-26.324     c4.608-5.12,9.216-9.728,14.336-13.824c1.024-1.024,1.024-2.56,0-3.584s-2.56-1.024-3.584,0     c-4.608,4.608-9.728,9.216-14.336,14.336l-24.984,27.34c-2.789-2.042-4.201-4.982-4.201-8.396l1.024-65.024     c0.792-27.314,4.046-54.319,10.445-80.784c2.337,14.791,7.306,29.177,14.643,42.384c0.512,1.024,1.024,1.536,2.048,1.536     c0.512,0,1.024,0,1.024,0c1.024-1.024,1.536-2.56,1.024-3.584c-9.279-16.625-14.464-35.003-15.127-54.03     c0.904-3.16,1.839-6.315,2.839-9.458l3.799-12.978c1.566,3.97,3.706,7.648,6.441,10.93c9.728,11.264,25.088,18.432,46.592,20.48     c5.12,1.024,10.752,1.024,15.872,1.024c3.072,0,5.632,0,7.68,0.512c1.536,0,2.56-1.024,2.56-2.56s-1.024-2.56-2.56-2.56     c-7.68,0.512-15.36,0-23.04-0.512c-19.968-2.048-34.304-8.192-43.008-18.944c-4.014-4.94-6.714-10.817-7.896-17.395l5.848-19.981     c10.24-36.352,30.72-68.608,58.88-93.696l56.832-51.2c2.56-2.56,6.144-3.072,9.728-2.048c3.072,1.024,5.632,3.584,6.656,7.168     l0.883,4.727c-0.236,0.394-0.371,0.871-0.371,1.417l4.608,76.8c0.512,5.632,1.024,11.776,1.024,17.408     c0,1.536,1.024,2.56,2.56,2.56s2.56-1.536,2.56-2.56c-0.512-5.632-0.512-11.776-1.024-17.408l-2.485-41.418l8.117,43.466     c1.024,5.632,2.048,11.264,3.072,16.896c0,0.117,0.013,0.231,0.026,0.345c-2.258,4.158-4.829,8.152-7.706,11.943     c-1.536,2.048-1.024,5.632,1.024,7.168c1.024,0.512,2.048,1.024,3.072,1.024c1.536,0,3.072-0.512,4.096-2.048     c12.288-16.384,19.456-36.352,20.992-56.832l0.512-4.608c0.451-7.058,0.753-14.115,0.939-21.16     c1.375,0.449,2.928,0.853,4.693,1.192c1.024,0,2.048-0.512,2.56-2.048c0.512-1.536-0.512-3.072-2.048-3.072     c-1.912-0.319-3.625-0.786-5.078-1.356c0.203-11.913,0.026-23.779-0.527-35.537c4.151,1.34,9.506,2.077,15.846,2.077     c1.536,0,2.56-1.024,2.56-2.56c0-1.536-1.024-2.56-2.56-2.56c-7.436,0-12.779-1.041-16.146-2.477     c-0.08-1.393-0.147-2.789-0.238-4.179l-1.046-12.899c4.486,1.835,10.284,3.171,17.43,3.171c0.512,0,1.536,0,2.048,0     c6.866,0,12.397-0.886,16.383-2.536c-0.793,12.107-1.12,24.213-1.02,36.32c-3.212,1.741-8.967,3.08-17.411,3.08     c-1.536,0-2.56,1.024-2.56,2.56s1.024,2.56,2.56,2.56c7.21,0,13.147-0.954,17.486-2.664c0.218,11.446,0.815,22.893,1.772,34.339     c-2.133,2.081-7.153,3.794-15.674,4.164c-1.536,0-2.56,1.024-2.56,2.56c0,1.536,1.024,2.56,2.56,2.56     c7.835-0.402,12.902-1.83,16.178-3.601c0.339,3.606,0.716,7.213,1.123,10.819c-0.261,0.405-0.405,0.909-0.405,1.485     c0,2.048-2.56,4.096-7.168,5.12c-1.024,0.512-2.048,1.536-1.536,3.072c0.512,1.536,1.536,2.048,2.56,2.048c0,0,0,0,0.512,0     c3.054-0.848,5.251-1.98,6.842-3.204c1.725,12.841,6.758,25.616,14.662,36.484l10.24,14.336c1.024,1.536,2.56,2.048,4.096,2.048     c1.024,0,2.048,0,3.072-0.512c2.048-1.536,2.56-4.608,1.024-7.168l-10.24-14.336c-3.587-4.868-6.404-10.248-8.517-15.885     c0.141-0.326,0.255-0.662,0.325-1.011c2.048-20.992,7.168-42.496,11.776-61.44l4.747-19.327L280.625,94     c-3.072,23.04-1.536,46.592,4.096,69.632l9.216,35.84c5.632,22.016,7.168,44.032,5.632,66.56l-1.024,15.872     c-2.56,32.768,15.872,64.512,45.568,78.336l7.68,3.584c14.336,6.656,27.648,14.336,40.448,23.552     c0.512,0.512,1.024,0.512,1.536,0.512c0.512,0,1.536-0.512,1.536-1.024c1.024-1.024,0.512-2.56-0.512-3.584     c-12.8-9.216-26.624-17.408-40.96-24.064l-7.68-3.584c-27.648-12.8-45.056-42.496-42.496-73.216l1.024-15.872     c2.048-23.04,0-46.08-5.632-68.096l-9.216-35.84c-5.632-22.016-7.168-45.056-4.096-67.584l4.421-33.894     c0.693-0.377,1.434-0.693,2.235-0.922c3.584-1.024,7.168,0,9.728,2.56l65.536,62.976c29.184,27.136,49.152,61.952,57.856,100.352     l1.625,6.827c0.057,22.191-8.613,43.681-24.666,59.733l-4.608,4.608c-1.024,1.024-1.024,2.56,0,3.584     c0.512,0.512,1.536,0.512,2.048,0.512c0.512,0,1.536-0.512,1.536-0.512l4.608-4.608c13.14-13.485,21.601-30.009,24.769-47.831     l2.367,9.943c8.192,33.792,12.8,69.12,14.848,103.936l3.072,56.832C451.633,422.704,449.585,426.288,446.513,428.336z"/><path d="M180.273,218.928c-1.024,0-2.56,1.024-2.56,2.56c-1.536,19.456-4.096,38.912-7.68,57.856l-2.56,12.8     c-4.608,25.6-22.528,46.592-46.592,55.808l-11.264,4.096c-11.264,4.608-22.528,9.728-32.768,16.384     c-1.536,1.024-1.536,2.56-1.024,3.584c0.512,0.512,1.024,1.024,2.048,1.024c0.512,0,1.024,0,1.536-1.024     c9.728-6.656,20.48-11.776,31.744-15.872l11.264-4.096c26.112-9.728,45.056-32.256,50.176-59.392l2.56-12.8     c3.584-19.456,6.144-38.912,7.68-58.368C182.833,220.464,181.809,218.928,180.273,218.928z"/><path d="M69.681,373.04c-1.536,1.024-2.56,1.536-3.584,2.56c-1.024,1.024-1.536,2.56-0.512,3.584     c0.512,0.512,1.024,1.024,2.048,1.024c0.512,0,1.024-0.512,1.536-0.512c1.536-1.024,2.56-1.536,3.584-2.56     c1.024-1.024,1.536-2.56,0.512-3.584S70.705,372.016,69.681,373.04z"/><path d="M408.112,392.496c-1.024-0.512-2.56-0.512-3.584,0.512c-0.512,1.024-0.512,2.56,0.512,3.584l11.264,9.216     c0.512,0.512,1.024,0.512,1.536,0.512s1.536,0,2.048-1.024c0.512-1.024,0.512-2.56-0.512-3.584L408.112,392.496z"/><path d="M427.568,408.368c-1.024-0.512-2.56-0.512-3.584,0.512c-0.512,1.024-0.512,2.56,0.512,3.584l6.656,5.632     c0.512,0.512,1.024,0.512,1.536,0.512c1.024,0,1.536,0,2.048-1.024c0.512-1.024,0.512-2.56-0.512-3.584L427.568,408.368z"/><path d="M369.712,325.424l-5.632,5.632c-1.024,1.024-1.024,2.56,0,3.584c0.512,0.512,1.536,0.512,2.048,0.512     c0.512,0,1.024,0,1.536-0.512l5.632-5.632c1.024-1.024,1.024-2.56,0-3.584C372.273,324.4,370.736,324.4,369.712,325.424z"/><path d="M386.609,308.528l-9.216,9.216c-1.024,1.024-1.024,2.56,0,3.584c0.512,0.512,1.536,0.512,2.048,0.512     c0.512,0,1.024,0,1.536-0.512l9.216-9.216c1.024-1.024,1.024-2.56,0-3.584S387.633,307.504,386.609,308.528z"/><path d="M66.609,349.488c1.024-1.024,1.024-2.56,0-3.584l-6.656-6.656c-1.024-1.024-2.56-1.024-3.584,0s-1.024,2.56,0,3.584     l6.656,6.656C63.536,350,64.561,350,65.072,350C65.585,350,66.609,350,66.609,349.488z"/><path d="M46.129,322.352c-1.024-1.024-2.56-1.536-3.584-0.512c-1.024,1.024-1.536,2.56-0.512,3.584     c2.048,2.56,4.096,5.632,6.144,8.192c0.512,0.512,1.536,1.024,2.048,1.024c1.024,0,1.536-0.512,1.536-1.024     c1.024-1.024,1.536-2.56,0.512-3.584C50.225,327.984,48.176,324.912,46.129,322.352z"/><path d="M123.952,267.568c4.608-0.512,8.704-1.536,12.288-2.56c1.536-0.512,2.56-1.536,2.048-3.072s-1.536-2.56-3.072-2.048     c-4.096,1.024-7.68,2.048-11.776,2.56c-1.536,0.512-2.048,1.536-2.048,3.072C121.393,266.544,122.929,267.568,123.952,267.568z"/><path d="M146.992,261.424c0.512,0,1.024,0,1.024,0c2.56-1.024,5.12-2.048,7.168-3.072c1.024-1.024,1.536-2.56,1.024-3.584     c-1.024-1.024-2.56-1.536-3.584-1.024c-2.048,1.024-4.608,2.048-6.656,3.072c-1.536,0.512-2.048,1.536-1.536,3.072     C144.945,260.912,145.968,261.424,146.992,261.424z"/><path d="M231.985,105.264c0-1.536-1.024-2.56-2.56-2.56c-2.048,0-3.584,0-5.12,0c-1.024,0-2.56,1.024-2.56,2.56     c0,1.024,1.024,2.56,2.56,2.56c2.048,0,3.584,0,5.632,0C231.473,107.824,231.985,106.8,231.985,105.264z"/><path d="M223.792,143.152c-1.024,0-2.56-0.512-3.584-0.512c-1.536-0.512-3.072,0.512-3.072,2.048     c-0.512,1.536,0.512,3.072,2.048,3.072s3.072,0.512,4.608,0.512c1.536,0,2.56-0.512,2.56-2.56     C226.352,144.688,225.328,143.152,223.792,143.152z"/></g><g transform="matrix(0.15224021673202515 0 0 0.15224021673202515 107.99999955398374 78)" id="L1_94"><path d="M380.834,202.114l-6.144-34.304c-5.168-29.019-16.203-56.185-32.141-80.302c-0.049-0.862-0.546-1.603-1.298-1.935     c-4.23-6.254-8.787-12.302-13.665-18.115l-25.088-29.696c-17.408-20.48-40.96-33.28-67.584-36.864l-3.072-0.512     c-10.24-1.024-20.48,2.048-28.16,8.704c-2.541,2.371-4.736,5.027-6.549,7.885c-1.852-2.934-4.121-5.595-6.763-7.885     c-7.68-7.168-17.92-10.24-28.16-8.704l-3.072,0.512c-26.112,3.584-50.176,16.384-67.584,36.864L66.466,67.458     C41.89,96.13,26.018,130.946,19.362,167.81l-6.144,34.304c-6.656,38.912,1.536,78.848,22.528,112.128l17.92,28.672     c17.408,28.16,48.128,46.592,80.896,49.664l17.92,1.024c1.536,0,2.56,0,4.096,0c11.264,0,22.528-4.096,31.232-11.776     c3.773-3.563,6.932-7.733,9.363-12.287c1.974,3.741,4.486,7.22,7.531,10.318c0.112,0.148,0.241,0.28,0.386,0.395     c0.54,0.536,1.093,1.062,1.665,1.574c8.704,8.192,19.968,12.288,31.232,12.288c1.536,0,2.56,0,3.584,0l17.92-1.536     c32.768-3.072,62.976-21.504,80.896-49.664l17.92-28.672C379.81,280.962,387.49,241.026,380.834,202.114z M180.642,374.658     c-2.469,2.14-5.153,3.958-7.995,5.411c1.255-3.266,1.787-6.948,1.339-10.531c-0.512-4.608-4.096-13.824-17.92-16.896     c-1.536,0-2.56,0.512-3.072,2.048c0,1.536,0.512,2.56,2.048,3.072c10.24,2.56,13.312,8.192,13.824,12.8     c0.707,4.594-1.026,9.186-3.346,12.265c-4.01,1.084-8.222,1.477-12.526,1.047l-17.92-1.536     c-29.696-3.072-57.344-19.968-73.216-45.056l-17.92-28.672c-19.968-31.232-27.136-68.608-20.992-104.96l0.562-3.138     c3.658,3.353,9.898,6.812,19.918,5.698c0.512,4.096,2.56,11.264,8.192,16.384c4.608,4.608,11.264,6.656,18.944,6.144     c3.072,11.776,12.288,29.184,32.256,26.112c1.024,0,1.536-0.512,2.048-1.024c0,0,3.072-4.096,7.168-5.12     c2.56-0.512,5.12,0.512,8.192,2.56c0.512,0.512,1.536,0.512,2.048,0.512c0,0,18.432-1.536,26.624,10.24     c0.512,0.512,1.024,1.024,2.048,1.024c0.512,0,1.024-0.512,0.512-0.512c1.024-1.024,1.536-2.56,0.512-3.584     c-8.704-12.288-25.6-12.288-30.208-12.288c-4.096-2.56-8.192-3.584-11.776-3.072c-5.12,1.024-8.192,4.608-9.728,6.656     c-20.992,2.048-25.6-23.04-25.6-24.064s-1.024-2.048-2.56-2.048c-7.168,0.512-13.312-1.024-17.408-4.608     c-6.656-6.144-6.656-15.872-6.656-15.872c0-1.024-0.512-1.536-1.024-2.048c-0.512-0.512-1.536-0.512-2.048-0.512     c-8.704,1.536-14.336-1.024-17.408-3.584c-1.232-1.026-2.204-2.13-2.942-3.156l4.478-25.004     c3.502-20.136,10.008-39.434,19.213-57.338c0.303,4.497,1.044,8.763,2.291,11.258c1.536,2.56,3.584,4.608,5.12,6.656     c3.072,3.584,5.12,5.632,5.12,11.776c0,1.536,1.024,2.56,2.56,2.56c1.024,0,2.56-1.024,2.56-2.56     c0.512-8.192-3.072-11.776-6.144-15.36c-1.536-1.536-3.072-3.072-4.096-5.632c-1.963-3.534-2.119-13.388-1.623-19.177     c5.712-9.638,12.238-18.811,19.543-27.415l25.088-29.696c14.322-16.632,33.239-27.821,54.476-32.109     c-2.872,8.944-9.889,12.913-14.028,15.213c-2.56,1.536-4.608,2.56-4.608,5.12s3.072,3.584,4.608,4.096     c6.144,2.048,9.728,4.608,10.752,7.168s-0.512,5.12-1.536,7.168v0.512c-0.512,1.024,0,2.56,1.024,3.072     c0,0.512,0.512,0.512,1.024,0.512c1.024,0,2.048-0.512,2.56-1.536c1.536-2.56,4.096-7.168,2.048-11.776     c-1.536-4.096-5.632-7.168-12.8-9.728c4.958-2.975,13.737-8.371,16.614-20.795c0.437-0.062,0.868-0.141,1.306-0.197l3.072-0.512     c7.68-1.024,14.848,1.536,20.48,6.144c4.204,3.822,6.979,8.784,8.118,14.036c-0.285,1.783-0.438,3.593-0.438,5.42     c0,0.882,0.186,1.666,0.499,2.355c-0.147,17.029-1.602,25.798-3.059,35.021c-0.714,4.523-1.428,9.158-1.988,14.829     c-7.485,8.504-14.479,4.585-15.42,4.115c-1.024-0.512-3.072,0-3.584,1.024c-1.024,1.024-0.512,2.56,0.512,3.584     c0,0,3.584,2.048,8.192,2.048c2.816,0,6.206-0.774,9.702-3.238c-0.303,4.952-0.486,10.684-0.486,17.574     c0,19.968,1.536,30.208,3.072,39.936c0.918,5.812,1.835,11.444,2.425,19.075c-3.555-3.625-8.99-6.941-17.273-8.834     c-1.536,0-2.56,0.512-3.072,2.048c0,1.536,0.512,2.56,2.048,3.072c11.334,2.429,16.585,7.738,18.794,12.891     c0.097,2.919,0.15,6.109,0.15,9.637c0,19.456-1.536,28.672-3.072,38.4c-0.657,4.159-1.313,8.414-1.849,13.479     c-1.967-3.182-4.675-5.984-8.391-7.335c-6.144-2.56-10.24-3.072-13.824-3.584c-6.656-1.024-8.704-1.536-13.824-10.24     c-6.144-10.24-16.384-10.24-25.6-10.752c-5.632-0.512-11.264-0.512-14.336-3.072s-4.608-6.656-6.144-10.752     c-2.56-6.656-5.632-14.336-16.384-17.408c-6.144-1.536-11.264-2.048-16.896-2.56h-2.048c-1.024,0-2.56,1.024-2.56,2.56     c0,1.024,1.024,2.56,2.56,2.56h2.048c5.12,0.512,10.752,1.024,15.872,2.56c8.192,2.56,10.24,7.68,12.8,14.336     c1.536,4.608,3.584,9.216,7.68,12.8c4.608,3.584,10.752,4.096,17.408,4.096c8.704,0,16.896,0.512,21.504,8.192     c6.144,10.752,9.728,11.776,17.408,12.8c3.072,0.512,7.168,1.024,12.8,3.072c5.52,1.725,8.015,9.257,9.058,13.99     c-0.223,4.393-0.354,9.379-0.354,15.194c0,19.968,1.536,30.208,3.072,39.936c1.536,10.24,3.072,19.456,3.072,38.4     c0,1.534,0.078,3.061,0.224,4.575C191.093,361.129,187.166,369.004,180.642,374.658z M350.626,308.61l-6.642,10.627     c-3.311,1.983-8.079,2.335-13.326,2.685c-2.56,0.512-5.632,0.512-8.192,1.024c-10.752,2.048-13.312,7.68-15.36,12.288     c-1.536,3.072-2.048,4.608-4.096,5.12c-2.048,0.512-5.632-0.512-9.216-1.024c-7.68-1.536-17.408-3.584-20.48,7.168     c-2.56,10.24-16.896,14.848-16.896,14.848c-1.024,0.512-2.048,1.536-1.536,3.072c0.512,1.024,1.536,1.536,2.56,1.536     c0.128,0,0.224,0,0.288,0c-0.064,0-0.16,0-0.288,0c0.512,0,16.896-5.12,20.48-18.432c2.048-5.632,5.632-5.632,14.336-3.584     c4.096,1.024,8.192,2.048,11.776,1.024c4.096-1.024,5.632-4.608,7.168-7.68c2.048-4.096,3.584-7.68,11.776-9.216     c2.56,0,5.12-0.512,7.68-0.512c2.859-0.179,5.839-0.365,8.685-0.892l-6.638,10.62c-15.872,25.6-43.52,42.496-73.216,45.056     l-17.92,1.536c-8.54,0.854-16.718-1.506-23.655-6.17c4.139-2.245,8.412-6.112,10.855-12.774c0.512-1.024,0-2.56-1.536-3.072     c-1.024-0.512-2.56,0-3.072,1.536c-2.382,6.352-6.815,9.416-10.614,10.898c-6.318-6.047-10.124-13.51-11.125-21.796     c0.151-1.478,0.235-2.966,0.235-4.463c0-0.901-0.194-1.699-0.521-2.398c-0.118-18.402-1.59-28.208-3.063-37.538     c-1.536-10.24-3.072-19.456-3.072-38.4c0-19.456,1.536-28.672,3.072-38.4c1.536-9.728,3.072-19.968,3.072-39.936     s-1.536-30.208-3.072-39.936c-1.031-6.528-2.061-12.83-2.627-21.992c3.19,1.287,10.532,4.961,11.331,11.752     c0,1.536,1.024,2.56,2.56,2.56s2.56-1.536,2.56-2.56c-0.376-4.322-2.616-7.745-5.325-10.35c2.944-1.107,6.715-3.28,9.932-7.57     c1.024-1.024,0.512-2.56-0.512-3.584s-2.56-0.512-3.584,0.512c-4.608,6.144-10.752,6.656-10.752,6.656     c-0.135,0-0.262,0.018-0.389,0.033c-3.017-1.761-5.549-2.593-5.755-2.593c-0.103-0.052-0.214-0.085-0.326-0.116     c-0.119-3.188-0.186-6.7-0.186-10.636c0-18.944,1.536-28.16,3.072-37.888c1.245-7.884,2.49-16.106,2.917-29.569     c2.88,2.745,7.399,4.993,14.491,4.993c1.024,0,1.536,0,1.536,0c1.536,0,2.56-1.024,2.56-2.56s-1.024-2.56-2.56-2.56     c-11.403,0.814-14.705-5.17-15.58-8.169c0.13-0.486,0.22-0.998,0.22-1.559c0-1.933-0.154-3.831-0.443-5.686     c1.135-5.45,3.913-10.326,8.123-13.77c4.798-4.362,11.082-6.485,17.269-6.388c8.342,2.541,8.878,6.05,9.867,10.996     c1.024,4.608,2.048,10.24,10.752,13.824c12.288,4.608,10.752,11.776,7.168,24.064l-0.512,1.024     c-0.612,2.142-0.944,4.074-1.045,5.832c-9.615-6.641-21.176-3.682-27.115-0.712c-1.024,1.024-1.536,2.56-1.024,3.584     c1.024,1.024,2.56,1.536,3.584,1.024c1.024,0,16.384-8.192,26.624,5.12c0.1,0.1,0.202,0.197,0.305,0.293     c2.651,3.856,7.176,6.275,11.983,8.411c5.12,2.56,6.656,13.824,7.168,17.408c0,1.536,1.024,2.56,2.56,2.56     c1.536-0.512,2.56-1.536,2.56-3.072s-1.536-17.408-10.24-21.504c-9.728-4.096-13.312-7.68-10.24-17.408l-0.512-1.024     c3.584-11.264,7.168-24.064-9.728-30.72c-6.144-2.56-6.656-5.632-7.68-10.24c-0.499-2.495-1.123-5.354-2.991-7.987     c22.223,3.926,42.395,15.335,56.752,32.563l25.088,29.696c3.057,3.601,5.969,7.307,8.753,11.1     c-4.476,0.5-9.517,1.893-13.361,5.284c-4.608,4.096-6.656,10.24-5.632,18.432c2.048,18.944-2.56,19.456-14.336,20.992     c-3.072,0-5.632,1.024-8.192,2.048c-1.024,1.024-1.536,2.048-1.024,3.584c0.512,1.024,1.536,1.536,2.56,1.536     c0.512,0,0.512,0,1.024,0c2.048-1.024,4.096-1.536,6.656-2.048c14.848-2.048,21.504-5.12,18.944-26.624     c-1.024-6.144,0.512-10.752,3.584-13.824c3.638-3.358,9.108-4.267,13.323-4.403c2.79,4.056,5.411,8.218,7.889,12.462     c1.744,6.881,12.493,51.753-21.212,63.621c-10.752,4.096-13.824,12.288-16.384,19.968c-3.072,8.192-5.632,16.384-18.432,20.992     c-4.608,2.048-11.776,1.536-18.944,1.536c-9.728-0.512-19.968-0.512-28.16,3.584c-3.072,1.536-5.632,4.096-7.68,7.168     c-0.512,1.536,0,3.072,1.024,3.584c0.512,0.512,1.024,0.512,1.536,0.512c1.024,0,1.536-0.512,1.536-1.536     c1.536-2.048,3.072-4.096,5.632-5.12c7.168-3.584,16.384-3.584,25.6-3.072c7.68,0.512,14.848,0.512,20.992-1.536     c14.848-5.632,18.432-15.872,21.504-24.576c2.56-7.68,4.608-13.824,13.312-16.896c26.609-9.768,28.622-37.039,26.885-54.704     c8.109,16.72,13.915,34.584,17.147,53.168l6.144,34.304C377.762,240.002,370.594,277.378,350.626,308.61z"/><path d="M41.378,157.57c-0.512-1.536-1.536-2.048-3.072-1.536c-1.536,0.512-2.048,1.536-1.536,3.072     c0.512,2.048,1.024,3.584,2.048,5.12c0,1.024,1.024,1.536,2.048,1.536c0,0,0.512-0.512,1.536,0     c1.024-1.024,1.536-2.56,1.024-3.584C42.402,160.642,41.89,159.106,41.378,157.57z"/><path d="M57.762,175.49c-4.096-1.536-7.168-3.072-9.728-6.144c-1.024-1.024-2.56-1.024-3.584,0c-1.024,1.024-1.024,2.56,0,3.584     c3.072,3.584,7.168,6.144,11.776,7.68c0.512,0,0.512,0,1.024,0c1.024,0,2.048-0.512,2.048-2.048     C59.81,177.538,59.298,176.002,57.762,175.49z"/><path d="M207.266,238.466c-1.536,0.512-3.072,1.024-4.608,1.536c-1.024,1.024-1.536,2.56-1.024,3.584     c0.512,1.024,1.536,1.536,2.56,1.536c0.512,0,1.024-0.512,1.024-0.512c1.024-0.512,2.56-1.024,3.584-1.536     c1.024-0.512,2.048-2.048,1.536-3.072C209.826,238.978,208.802,237.954,207.266,238.466z"/><path d="M217.506,241.026c0,0,0.512,0,1.024,0c6.144-1.536,10.24-4.608,12.8-8.704c0.512-1.536,0-3.072-1.024-3.584     c-1.536-0.512-3.072,0-3.584,1.024c-1.536,2.048-3.584,4.608-9.728,6.144c-1.536,0.512-2.56,1.536-2.048,3.072     C215.458,240.514,216.482,241.026,217.506,241.026z"/><path d="M218.53,192.898c1.024,0,8.704,1.536,17.92,1.536c10.24,0,22.528-2.048,28.672-8.704     c4.096-4.608,5.12-10.752,3.072-17.92c-1.536-6.656-4.608-10.752-9.216-13.312c-2.56-1.536-5.12-2.048-7.168-2.048     c1.024-3.072,2.56-7.168,1.536-11.776c-1.024-5.12-5.12-10.24-11.776-13.824c3.072-4.608,8.192-13.312,3.072-20.992     c-1.536-2.56-3.584-4.608-5.632-6.656c-5.12-5.12-9.728-9.728-8.192-16.896c0-1.536-0.512-2.56-2.048-3.072     c-1.536,0-2.56,0.512-3.072,2.048c-2.048,9.728,4.096,15.872,9.216,21.504c2.048,2.048,3.584,4.096,5.12,6.144     c4.608,6.656-4.608,16.896-4.608,16.896c-0.512,0.512-0.512,1.024-0.512,2.048c0.512,1.024,1.024,1.536,1.536,2.048     c6.656,3.072,10.752,7.168,11.776,11.776c1.536,6.656-3.584,12.288-3.584,12.288c-0.512,1.024-0.512,2.048,0,3.072     c1.024,1.024,2.048,1.536,3.072,1.024c0,0,4.608-1.536,9.216,1.024c3.072,2.048,5.12,5.12,6.656,10.24     c1.536,5.632,1.024,9.728-2.048,12.8c-8.192,9.216-33.28,7.168-41.984,5.632c-1.536-0.512-3.072,0.512-3.072,2.048     C215.97,191.362,216.994,192.898,218.53,192.898z"/><path d="M282.018,151.938c0-1.536,0-5.632,2.048-8.704c0.512-1.536,0-3.072-1.024-3.584c-1.536-0.512-3.072,0-3.584,1.024     c-2.56,4.608-2.56,9.216-2.56,11.264h2.56H282.018z"/><path d="M230.818,343.426c-1.536,0-2.56,0.512-3.072,2.048c-0.512,1.024-1.024,2.56-1.024,3.584c0,1.536,0.512,2.56,2.56,3.072     c1.024,0,2.56-0.512,3.072-2.56c0-1.024,0-2.048,0.512-3.072C232.866,344.962,232.354,343.938,230.818,343.426z"/><path d="M237.474,330.626c-3.072,1.536-5.12,4.096-7.168,7.168c-0.512,1.024,0,3.072,1.024,3.584     c0.512,0.512,1.024,0.512,1.536,0.512c1.024,0,1.536,0,1.536-1.024c1.536-2.048,3.072-4.096,5.632-5.632     c1.536-1.024,1.536-2.56,1.024-3.584C240.034,330.114,238.498,330.114,237.474,330.626z"/><path d="M283.042,272.258c-1.536-1.024-2.56-1.536-3.072-2.56c-1.024-1.536-2.56-1.536-3.584-1.024     c-1.536,1.024-1.536,2.56-1.024,3.584c1.024,2.048,3.072,3.584,5.632,4.608c5.632,2.56,9.216,7.168,10.24,12.288     c1.024,6.656-3.072,13.824-11.264,21.504c-6.656,6.144-15.36,7.68-23.552,9.216c-2.048,0-4.096,0.512-6.144,1.024     c-1.536,0.512-2.56,1.536-2.048,3.072c0.512,1.024,1.536,2.048,2.56,2.048c0.512,0,0.512,0,1.024,0.512     c1.536-0.512,3.584-0.512,5.632-1.024c8.704-1.536,18.432-3.584,26.112-10.752c9.728-9.216,13.824-17.92,12.8-26.112     C295.33,281.474,290.21,275.842,283.042,272.258z"/><path d="M322.978,224.13c2.56-8.704,5.12-16.896,16.896-19.968c1.536-0.512,2.56-1.536,2.048-3.072     c-0.512-1.536-1.536-2.56-3.072-2.048c-14.848,3.072-17.92,14.336-20.48,23.04c-2.56,9.728-4.608,15.872-18.432,13.312     c-13.617-2.476-25.169-1.397-32.296-0.157c-5.983-0.296-13.653,3.093-17.88,12.957c-0.512,2.048-1.536,4.096-2.048,6.144     c-2.56,8.192-4.608,15.872-15.36,15.872c-13.824,0-19.968,11.264-20.992,17.408c0,1.536,0.512,2.56,2.56,3.072     c1.024,0,2.048-1.024,2.048-2.048c0-0.512,2.56-12.8,15.872-13.312c14.336-0.512,17.92-10.752,20.48-19.456     c0.512-2.048,1.536-4.096,2.048-5.632c1.82-4.161,4.301-6.731,6.906-8.191c-0.062,0.134-0.142,0.296-0.25,0.511     c0,0,3.302-1.029,8.829-1.841c3.964,0.937,6.575,4.285,7.043,8.497c0,0.512,0,1.536,0,2.048c0,1.536,1.024,2.56,2.56,2.56     s2.56-1.024,2.56-2.56c0-1.024,0-1.536,0-2.56c-0.258-3.348-1.682-6.435-3.946-8.808c5.814-0.321,12.77-0.162,20.33,1.129     C316.834,244.61,320.418,233.858,322.978,224.13z"/><path d="M354.722,191.874c-1.536,1.536-3.584,2.56-6.144,3.584c-1.536,1.024-2.048,2.048-1.536,3.584     c0.512,1.024,1.536,1.536,2.56,1.536c0.512,0,0.512,0,1.536-0.512c3.072-1.536,5.12-3.072,7.168-4.608     c1.024-1.024,1.024-2.56,0-3.584S355.746,190.85,354.722,191.874z"/><path d="M349.09,242.05c1.024-1.024,1.536-2.56,0.512-3.584c-1.024-1.024-2.56-1.536-3.584-0.512     c-2.56,2.048-9.728,10.24-0.512,26.624c3.584,6.144,0.512,11.264-3.584,14.336c-4.096,3.072-9.728,4.096-13.312,0     c-1.024-1.024-2.56-1.024-3.584-0.512c-1.024,0.512-1.536,2.048-1.024,3.072c0,0,3.072,6.656,0.512,11.776     c-1.536,3.072-5.12,5.632-10.24,6.656c-1.536,0.512-2.56,1.536-2.048,3.072c0.512,1.024,1.536,2.048,2.56,2.048     c0.512,0,0.512,0,1.024-0.512c7.168-1.536,11.776-4.608,13.824-9.216c1.536-3.072,1.536-6.656,1.024-9.216     c4.608,1.024,9.728,0,13.824-3.072c6.144-4.096,10.24-12.288,5.12-20.992C342.434,249.218,347.554,243.586,349.09,242.05z"/><path d="M161.698,69.506c1.024,1.536,1.024,3.072,1.024,4.608c0,1.024,1.024,2.56,2.56,2.56c1.536,0,2.56-1.024,2.56-2.56     c0-2.56-0.512-4.608-1.536-7.168c-1.024-1.024-2.56-1.536-3.584-1.024C161.698,66.946,161.186,68.482,161.698,69.506z"/><path d="M154.018,191.874c10.24,3.072,14.336,6.144,15.872,8.704c1.536,2.048,1.024,3.584,1.024,3.584     c-0.512,1.024,0,2.56,1.536,3.072c0.512,0,0.512,0,1.024,0c1.024,0,1.536-0.512,1.024-1.536c0-0.512,1.024-3.072-0.512-6.656     c-2.56-5.12-9.216-9.216-19.456-12.288c-8.704-2.56-14.336-7.168-15.872-13.824c-2.048-7.68,2.048-15.872,6.144-20.48     c2.56-2.048,5.12-4.096,8.192-6.144c6.656-4.608,14.336-10.24,11.776-19.456c-1.536-6.144-4.608-9.728-7.168-12.8     c-4.096-4.608-6.144-7.68-1.024-16.896c1.536-3.072,3.072-5.632,4.608-7.68c1.536-2.56,3.072-4.608,4.096-6.656     c0.512-1.536,0-3.072-1.024-3.584c-1.536-0.512-3.072,0-3.584,1.024c-1.024,2.048-2.048,4.096-3.584,6.656     c-1.536,2.048-3.072,4.608-4.608,7.68c-6.656,12.288-2.56,17.408,1.536,22.528c2.56,3.072,4.608,6.144,6.144,10.752     c1.536,5.632-2.56,8.704-9.728,13.824c-3.072,2.56-6.144,4.608-8.704,7.168c-5.632,5.632-9.728,15.872-7.168,25.6     C136.098,180.098,140.706,187.778,154.018,191.874z"/><path d="M105.378,127.874c6.656,3.584,12.8,7.168,13.312,15.872c0,1.536,1.024,2.56,2.56,2.56c2.048,0,3.072-1.536,1.536-3.072     c-1.024-11.776-8.704-15.872-15.872-19.968c-6.144-3.584-12.288-6.656-13.824-14.848c-2.56-14.336,12.8-22.016,13.312-22.528     c1.024,0,1.536-1.024,1.536-1.536c0-0.512,0-1.536-0.512-2.048c-3.584-4.608-5.12-10.24-4.096-14.848     c1.536-6.144,7.68-11.264,16.896-14.848c1.536-0.512,2.048-1.536,1.536-3.072c-0.512-1.536-1.536-2.048-3.072-1.536     c-13.824,5.12-18.432,12.8-19.968,17.92c-1.536,5.632,0,11.264,3.584,16.896c-6.656,4.096-15.872,13.824-13.312,26.624     C91.042,119.682,98.722,124.29,105.378,127.874z"/><path d="M100.77,160.13c14.336,3.072,15.872,12.288,15.872,12.8c0,1.024,1.024,2.048,2.56,2.048     c1.536-0.512,2.56-1.536,2.56-3.072c0-1.024-1.536-13.824-19.968-17.408c-18.432-3.584-24.576-11.776-24.576-11.776     c-1.024-1.024-2.56-1.536-3.584-0.512s-1.536,2.56-0.512,3.584C73.634,146.306,79.778,156.034,100.77,160.13z"/><path d="M155.554,278.914c-1.024,0-2.56,1.024-2.56,2.56c0,1.024-0.512,2.56-0.512,3.584c0,1.536,0.512,3.072,2.56,3.072     c1.536,0,2.56-1.024,2.56-2.56c0-1.536,0.512-2.56,0.512-4.096C158.114,280.45,157.09,278.914,155.554,278.914z"/><path d="M153.506,274.818c0,1.536,1.024,2.56,2.56,2.56s2.56-1.536,2.56-3.072c0-2.048-0.512-4.096-1.024-6.144     c-0.512-1.536-1.536-2.56-3.072-2.048c-1.536,0.512-2.56,1.536-2.048,3.072C152.994,271.234,153.506,272.77,153.506,274.818z"/><path d="M178.594,324.994c0,0-10.752,5.12-17.408,1.536c-3.072-1.536-5.12-5.12-5.632-10.24c0-1.024-0.512-1.536-1.536-2.048     c-1.024,0-2.048,0-2.56,0.512c0,0-6.656,4.608-14.336,3.072c-5.632-1.024-10.752-5.12-15.36-12.288     c0,0-8.192-13.824,1.024-29.696c0.512-1.536,0-3.072-1.024-3.584c-1.536-0.512-3.072,0-3.584,1.024     c-10.24,18.432-1.024,34.304-1.024,35.328c5.632,8.704,11.776,13.312,18.944,14.848c0.402,0.067,0.801,0.122,1.198,0.168     c-1.236,1.96-2.04,4.124-2.734,5.976c-1.024,3.072-2.048,5.12-3.584,6.144c-1.536,0.512-4.608,0-8.704-1.536     c-1.024-0.512-2.048-0.512-2.56,0c-0.512,0.512-1.024,1.024-1.024,2.048c0,0,0,2.048-2.048,4.096     c-2.048,1.536-5.12,2.56-9.728,2.048c-0.512,0-7.68,0-10.752,4.608c-2.048,3.072-1.536,7.68,1.536,13.824     c0,1.024,1.024,1.536,2.048,1.536c0,0,0.512,0,1.024,0c1.024-1.024,1.536-2.56,1.024-3.584c-2.048-4.096-2.56-7.168-1.536-8.704     c1.024-2.048,5.12-2.048,6.144-2.048c6.144,0.512,10.752-1.024,13.824-3.584c1.536-1.536,2.56-3.072,3.072-4.608     c4.096,1.024,7.68,1.024,10.24,0c3.584-1.536,5.12-5.632,5.632-8.192c1.536-4.608,2.56-7.168,6.144-8.192     c0.304-0.101,0.58-0.228,0.835-0.37c1.92-0.451,3.566-1.063,4.797-1.678c1.536,4.608,4.096,8.192,7.68,10.24     c3.072,1.536,5.632,2.048,8.704,2.048c6.656,0,13.312-3.072,13.824-4.096c1.024-1.024,2.048-2.56,1.024-3.584     C181.154,324.994,179.618,324.482,178.594,324.994z"/><path d="M97.186,334.21c0.512-1.536,0-3.072-1.536-3.584c-8.192-3.584-12.8-8.192-14.336-13.824     c-2.56-9.728,5.632-19.456,5.632-19.456c1.024-1.024,1.024-2.048,0.512-3.072c-0.512-1.024-1.536-1.536-2.56-1.536     c-6.656,1.024-12.288,0.512-16.384-1.536c-1.536-0.512-3.072,0-3.584,1.536c-0.512,1.536,0,3.072,1.536,3.584     c4.096,2.048,8.704,2.56,13.824,2.56c-2.56,4.608-5.632,11.776-3.584,19.456c2.048,7.68,7.68,13.312,17.408,17.408     c0.512,0,0.512,0,1.024,0C96.162,335.746,97.186,335.234,97.186,334.21z"/><path d="M60.834,260.994c0-0.512-1.024-1.024-1.536-1.024c-9.216-1.536-13.312-5.632-13.312-12.288c0-1.536-1.024-2.56-2.56-2.56     s-2.56,1.024-2.56,2.56c0,5.12,2.048,13.824,14.848,16.896c-1.024,4.096-2.048,11.264,0,18.432     c0.512,1.536,1.536,2.048,2.56,2.048c0,0,0.512,0,1.024-0.512c1.024-0.512,2.048-1.536,1.536-3.072     c-2.56-8.704,0.512-18.432,0.512-18.432C61.346,262.53,61.346,261.506,60.834,260.994z"/></g><g transform="matrix(0.12727342545986176 0 0 0.12727342545986176 221.00000065252493 158)" id="L1_95"><path d="M99.865,30.082c-2.048-0.512-3.584-1.024-5.12-1.536c-1.024-0.512-2.56,0-3.072,1.536c-0.512,1.024,0,2.56,1.536,3.072     c2.048,0.512,3.584,1.024,5.632,1.536h0.512c1.024,0,2.56-1.024,2.56-1.536C101.913,31.618,101.401,30.594,99.865,30.082z"/><path d="M131.609,35.202c-4.096-3.072-9.216-4.096-14.336-4.096h-2.56c-1.024,0-2.048,0-3.072,0c-1.536,0-2.56,1.024-2.56,2.56     s1.024,2.56,2.56,2.56c1.024,0,2.56,0,3.584,0h2.56c4.096,0,8.192,1.024,11.776,3.072c0.512,0.512,1.024,0.512,1.536,0.512     c1.024,0,1.536-0.512,1.536-1.024C133.145,37.762,132.633,35.714,131.609,35.202z"/><path d="M106.009,258.946c2.048,0,3.072-1.024,3.072-2.56c-0.512-3.072,0-5.632,0.512-8.704c0-1.536-0.512-2.56-2.048-3.072     c-1.536,0-2.56,0.512-3.072,2.048c-1.024,3.072-1.536,6.656-1.024,10.24C103.449,257.922,104.473,258.946,106.009,258.946z"/><path d="M106.009,235.394c0,1.536,1.024,2.56,2.56,2.56c1.536,0,2.56-1.024,3.072-3.072c-0.512-3.584-1.024-6.656-2.56-10.24     c-1.024-1.536-2.048-2.048-3.584-1.536c-1.536,1.024-2.048,2.048-1.536,3.584C104.985,229.762,106.009,232.322,106.009,235.394z"/><path d="M437.273,223.618l-4.096-11.264c-3.584-8.704-3.584-18.944-1.024-28.16l2.56-9.216     c5.632-17.408,6.144-36.352,1.536-54.272l-2.048-9.216c-2.048-7.68-1.536-16.384,1.024-24.064l1.536-5.12     c5.632-16.896,2.56-35.328-8.192-49.664l-0.512-0.512c-4.608-6.144-12.288-10.24-20.48-11.264l-5.12-0.512     c-8.704-1.024-16.896-3.072-25.088-6.144l-6.144-2.56c-12.288-4.608-26.112-3.584-37.376,2.56l-8.704,5.12     c-6.656,3.584-14.336,4.608-21.504,3.584l-13.824-2.048c-15.872-2.56-32.256,0-46.592,7.168l-9.728,4.608     c-6.144,2.56-12.8,2.56-18.432-1.024l-9.216-5.632c-10.752-6.656-23.552-9.216-36.352-7.168l-14.336,2.56     c-4.608,0.512-9.728-0.512-13.824-3.072L127.513,9.09c-10.752-7.168-23.04-10.24-35.84-8.704L82.969,1.41     c-7.68,1.024-14.848,4.608-20.48,10.24l-1.024,1.024c-11.776,12.8-16.384,30.72-12.8,47.616l0.512,2.048     c0.512,4.608-0.512,8.704-3.072,12.288l-0.512,0.512c-10.752,13.312-14.336,31.232-10.24,47.616l3.584,13.312     c1.024,3.584,1.024,7.68-0.512,11.264l-6.656,18.432c-5.12,15.36-3.584,31.744,3.584,45.568l9.216,15.36     c2.56,4.608,3.584,9.728,2.048,14.848l-2.048,7.68c-4.608,17.408-0.512,35.84,11.264,49.664l2.048,2.048     c9.728,10.752,23.04,17.408,37.376,18.432l1.536-0.512c4.93,0.379,9.789,0.053,14.475-0.895     c2.529,6.931,3.957,14.151,3.957,21.375l0.512,12.8c0,3.072,2.56,5.12,5.12,5.12c3.072,0,5.12-2.56,4.608-5.632l-0.512-12.8     c0-8.266-1.358-16.192-4.027-23.79c4.151-1.697,8.078-3.906,11.697-6.556c18.822,16.822,43.466,25.738,68.618,25.738     c2.258,0,4.517-0.001,6.904-0.257c0.533,6.176,2.121,12.331,4.872,18.177l9.728,20.48c1.024,3.072,2.048,6.656,1.536,10.24     l-1.536,18.432c-1.024,12.288,2.048,25.088,9.216,35.328l19.456,28.16c0.433,0.433,0.961,0.862,1.539,1.217     c2.632,3.61,6.935,5.439,11.261,5.439c0.512,0,1.536-0.512,2.56,0c4.608-1.024,10.24-5.632,10.24-14.848     c0-0.151-0.011-0.298-0.023-0.444c0.006-0.023,0.017-0.045,0.023-0.068l2.048-17.408c1.536-8.192,1.024-16.896-1.536-24.576     l-2.048-6.144c-1.024-3.584,0-7.168,2.56-9.728l1.536-1.024c6.366-5.877,9.911-14.564,9.312-23.373     c9.016,5.549,18.838,8.525,29.088,8.525c8.192,0,16.384-2.048,23.04-5.632l11.776-6.144c5.632-2.56,11.776-4.608,17.92-4.608     h3.072c26.624-0.512,48.64-21.504,51.712-47.616l1.024-9.728c0.512-4.608,1.536-8.704,3.584-12.8l5.632-12.288     C444.441,264.066,444.953,243.074,437.273,223.618z M168.041,323.375c1.878-0.137,4.029-0.497,6.576-1.452     c4.608,0,8.192-2.048,10.24-4.608c3.072-4.608,1.536-10.752,0.512-16.384c-1.024-3.584-1.536-7.168-1.024-9.216     c2.048-6.144,9.728-7.168,15.872-7.68c4.608-0.512,7.68-1.024,8.704-3.072c0.512-1.024,0-3.072-1.024-3.584     c-1.024-0.512-2.56,0-3.072,1.024c-0.512,0.512-3.072,1.024-5.12,1.024c-7.168,1.024-17.408,2.56-20.48,11.264     c-1.536,3.584-0.512,7.68,0.512,12.288c1.024,4.608,2.048,9.728,0,12.288c-1.024,1.536-3.072,2.048-6.656,2.56     c-12.8,1.024-17.408-0.512-19.456-1.536c-0.491-0.164-0.977-0.213-1.435-0.184c-5.451-3.096-10.634-6.713-15.483-10.807     l3.605-2.833c5.12-4.096,9.216-9.728,10.752-16.384c3.584-15.36,0.512-32.256-9.216-45.056l-2.56-3.072     c-4.608-6.144-6.144-13.824-4.096-20.992l2.436-8.283c0.813-1.829,1.688-4.074,2.684-6.565     c5.12-13.312,12.288-33.28,27.136-32.256c3.072,0.512,5.12,6.656,4.608,10.752c0,1.024,1.536,2.56,2.56,2.56     s2.56-1.024,2.56-2.56c0.512-6.656-2.048-15.872-9.216-16.384c-14.517-1.21-22.997,12.824-28.447,25.595     c-0.669-8.658-3.396-17.057-7.905-24.571l-3.723-6.013c15.398-16.068,40.745-20.533,60.555-10.883     c3.072,1.536,6.144,3.072,9.216,5.12c3.584,2.048,7.68,4.608,11.776,6.144c3.584,1.536,7.68,2.56,11.264,3.072     c1.024,0,2.048-1.024,3.072-2.048c0-1.024-1.024-2.56-2.56-2.56c-3.072-0.512-6.144-1.024-9.216-2.56     c-4.096-1.536-7.68-4.096-11.264-6.144c-3.072-2.048-6.144-4.096-9.728-5.632c-11.236-5.226-24.07-6.442-36.193-4.075     c-0.844-4.672-2.194-10.706-4.473-16.55c1.306-6.514,4.677-12.425,8.922-15.727c1.024-1.024,1.536-2.56,0.512-3.584     c-1.024-1.024-2.56-1.536-3.584-0.512c-3.938,3.222-7.12,7.699-9.031,13.074c-1.967-3.458-4.371-6.592-7.353-8.978     c-1.024-1.024-2.56-0.512-3.584,0.512c-1.024,1.024-0.512,2.56,0.512,3.584c8.028,6.611,11.698,21.492,13.024,29.389     c-9.176,2.602-17.729,7.311-24.598,13.945l-6.858-11.078c-3.072-5.12-3.584-11.776-1.536-17.408l1.024-3.072     c4.608-11.776,4.096-24.576-1.536-35.84l-1.536-3.584c-0.956-1.913-1.682-3.827-2.244-5.792c2.275,0.027,4.563-0.083,6.852-0.352     l2.56-0.512c4.608-0.512,9.216,0.512,12.8,3.072l13.312,8.704c11.776,7.68,25.6,10.24,38.912,8.192l7.68-1.536     c8.704-1.536,17.408-0.512,25.088,3.072l6.144,2.56c7.86,3.723,16.724,5.774,25.509,6.424     c-6.557,6.956-10.619,15.964-11.261,25.504c-0.472-0.42-0.952-0.827-1.448-1.208c-6.496-4.967-22.403-9.932-40.058-10.005     c0.427-0.725,0.822-1.472,1.146-2.283c2.048-5.632,1.536-12.288,0-17.92c-0.512-1.536-1.536-2.56-3.072-2.048     c-1.536,0.512-2.56,1.536-2.048,3.072c1.536,5.12,2.048,10.24,0.512,14.848c-0.5,2.001-1.497,3.506-2.976,4.529     c-3.945,0.258-7.929,0.776-11.872,1.615c-1.536,0.512-2.56,1.536-2.048,3.072c0.512,1.536,1.536,2.56,3.072,2.048     c23.552-5.12,47.616,2.048,54.272,7.168c5.278,3.839,8.758,10.376,9.174,17.083c-2.664,0.176-5.285,0.792-7.638,1.861     c-1.024,1.024-1.536,2.048-1.024,3.584c1.024,1.024,2.048,1.536,3.584,1.024c4.608-2.048,9.728-2.048,14.336,0     c1.536,0.512,3.584,1.536,5.12,2.56c2.048,1.024,4.608,2.56,7.168,3.584c4.096,1.536,8.704,1.536,12.8,1.536     c5.12,0,9.728,0,13.312,2.56c1.024,1.024,2.56,2.048,3.584,3.584c1.024,1.024,2.048,2.56,3.584,3.584     c0.512,0.512,1.024,0.512,1.536,0.512c0.512,0,1.024,0,1.536-1.024c0.512-1.024,0.512-2.56-0.512-3.584s-2.048-2.048-3.072-3.072     c-1.536-1.536-2.56-3.072-4.608-4.608c-5.12-3.072-10.752-3.072-16.384-3.072c-3.584,0-7.68,0-10.752-1.024     c-2.048-0.512-4.096-1.536-6.144-3.072c-1.536-1.024-3.584-2.048-5.632-3.072c-1.77-0.804-3.692-1.355-5.669-1.654     c-0.227-4.958-1.91-9.862-4.585-14.054c0.003-0.056,0.014-0.107,0.014-0.164c-0.888-11.546,4.393-23.854,13.491-31.262     c9.839-0.153,19.678-2.159,29.517-5.602l8.192-3.072c7.68-3.072,16.384-4.096,24.576-2.56l5.12,1.024     c1.798,0.359,3.61,0.612,5.427,0.776c0.066,0.084,0.127,0.169,0.205,0.248c4.096,4.608,5.632,11.264,4.096,17.408     c0,1.536,0.512,2.56,2.048,3.072h0.512c1.024,0,2.048-1.024,2.048-2.048c1.676-6.287,0.605-12.915-2.646-18.483     c11.644-0.348,23.141-4.569,32.342-12.237l1.024-0.512c0.754-0.603,1.604-1.106,2.508-1.531l3.123,23.035     c0.512,3.072,0,6.144-1.024,9.216l-9.216,22.016c-4.608,10.24-5.12,21.504-2.56,32.256l6.656,25.088     c1.536,4.096,0.512,8.704-1.536,12.8l-7.68,13.824c-6.144,11.264-10.752,23.04-13.824,35.84l-6.144,27.136l-10.752-1.024     c-15.872-1.024-32.256,0.512-47.616,4.096c-0.512,0-1.024-0.512-1.536-1.024c-11.264-11.776-28.672-14.848-43.008-7.68     l-1.536,1.024c-18.312,9.156-29.021,28.268-29.14,47.965C194.209,329.856,180.67,327.888,168.041,323.375z M427.545,278.914     l-5.632,12.288c-2.048,5.12-3.584,10.24-4.096,15.872l-1.024,9.728c-2.56,21.504-20.48,38.4-41.984,38.912h-3.072     c-7.68,0-15.36,2.048-22.528,5.632l-11.776,6.144c-14.336,7.68-31.744,6.144-45.056-3.584l-33.792-24.576     c-2.048-1.536-5.632-1.024-7.168,1.024s-1.024,5.632,1.024,7.168l25.3,18.4l0.812,7.712c0.512,5.632-1.536,11.776-6.144,15.872     l-1.536,1.024c-5.632,5.12-7.68,13.312-5.632,20.48l2.048,6.144c2.048,6.144,2.56,13.312,1.536,19.968l-2.048,17.408     c0,0.32,0.032,0.64,0.093,0.956c-0.061,0.347-0.093,0.711-0.093,1.091c0.512,2.56-0.512,4.096-2.048,4.608     c-1.024,0-3.072-0.512-4.096-2.048c-0.266-0.355-0.609-0.645-0.979-0.905l-18.477-26.743c-6.144-8.192-8.704-18.432-7.68-28.672     l1.536-18.432c0.512-5.12-0.512-10.752-2.56-15.36l-9.728-19.968c-10.24-21.504-1.536-47.104,19.456-57.856l1.536-1.024     c10.24-5.12,22.528-3.072,31.232,5.632c2.048,2.048,5.632,5.12,9.728,4.096c14.848-4.096,30.208-5.12,45.568-4.096l15.36,1.024     c2.56,0,5.12-1.536,5.632-4.096l7.168-31.232c2.56-11.264,6.656-22.528,12.8-32.768l7.68-13.824     c3.584-6.656,4.608-13.824,2.56-20.992l-6.656-25.088c-2.048-8.704-1.536-17.408,2.048-25.6l8.192-22.528     c2.048-4.608,2.56-9.216,2.048-14.336L383.9,82.796c9.131-0.499,17.565-5.377,22.653-12.777l2.048-2.56     c1.536-2.56,1.024-5.632-1.536-7.168c-2.56-1.536-5.632-1.024-7.168,1.536l-2.048,2.56c-3.499,4.998-9.925,8.522-16.421,8.211     c-1.031-0.886-2.475-1.306-4.059-1.042c-1.515,0-2.78,0.749-3.612,1.814c-3.568,0.831-6.915,2.367-9.7,4.842l-1.024,0.512     c-10.24,8.192-23.04,11.776-35.84,9.216l-5.12-1.024c-10.24-2.048-20.992-1.024-30.72,3.072l-8.192,3.072     c-17.408,6.656-36.864,6.656-53.76-1.024l-6.144-2.56c-9.728-4.608-20.48-5.632-30.72-4.096l-7.68,1.536     c-10.752,2.048-22.016-0.512-31.232-6.656l-13.312-8.704c-5.632-3.584-12.8-5.632-19.456-4.608l-2.56,0.512     c-3.148,0.35-6.321,0.337-9.456,0.009c-0.902-0.637-2.021-1.033-3.344-1.033c-0.38,0.076-0.743,0.196-1.096,0.338     c-8.983-1.874-17.362-6.512-23.48-13.65c-2.048-2.048-5.12-2.56-7.168-0.512c-2.048,2.048-2.56,5.12-0.512,7.168     c7.364,8.703,17.36,14.538,28.259,16.979c0.773,4.348,2.103,8.418,3.997,12.205l1.024,3.072     c4.608,8.704,5.12,18.944,1.536,27.648l-1.024,3.072c-3.072,8.192-2.56,18.432,2.56,26.112l13.312,21.504     c6.656,10.24,8.192,23.04,5.12,34.816l-2.56,9.216c-2.56,10.24-0.512,21.504,5.632,29.696l3.072,2.048     c7.68,10.752,10.24,24.064,7.168,36.864c-1.024,4.096-3.584,8.192-7.168,10.752l-7.168,5.632     c-2.985,2.238-6.243,4.064-9.697,5.462c3.713-11.154,2.529-23.274-3.102-34.134l-3.072-5.632     c-1.024-1.024-2.56-1.536-3.584-1.024c-1.024,1.024-1.536,2.56-1.024,3.584l3.072,5.632c5.771,10.654,6.145,22.844,1.473,33.574     c-4.248,1.027-8.701,1.458-13.249,1.242h-1.024c-11.776-0.512-22.528-6.144-30.208-14.848l-2.048-2.048     c-9.728-10.752-13.312-26.112-9.216-39.936l2.048-7.68c2.048-7.68,1.024-15.872-3.072-22.528l-9.216-15.36     c-6.656-10.752-7.68-24.064-3.584-36.352l6.656-18.432c1.536-5.632,2.048-11.776,0.512-17.408l-3.584-13.312     c-3.584-13.312-0.512-27.648,8.192-38.4l0.512-0.512c5.12-6.144,6.656-13.824,5.12-20.992l-0.512-2.048     c-3.072-13.824,1.024-28.16,10.24-38.4l1.024-1.024c3.584-4.096,8.704-6.656,14.336-7.168l8.704-1.024     c10.24-1.024,20.48,1.536,29.184,7.168l13.824,9.216c6.144,4.096,13.824,5.632,20.992,4.608l13.824-3.072     c10.24-1.536,20.992,0.512,29.696,5.632l9.216,5.632c8.704,5.12,18.944,5.632,28.16,1.024l9.728-4.608     c12.288-6.144,26.624-8.192,40.448-6.144l13.824,2.048c9.728,1.536,19.456,0,28.16-4.608l8.704-5.12     c8.704-4.608,19.456-5.12,28.672-1.536l6.144,2.56c3.818,1.572,7.837,2.833,11.919,3.857l-0.143,0.239     c-4.096,5.632-11.264,8.704-18.432,8.704c-5.12-0.512-10.24,1.536-14.336,4.608l-1.024,0.512     c-10.24,8.192-23.552,11.776-36.352,9.216l-5.12-1.024c-9.728-2.048-19.456-1.024-28.16,2.56l-7.68,3.072     c-16.896,6.656-36.352,6.144-53.248-1.024l-5.632-2.56c-8.704-4.096-18.432-5.12-28.16-3.584l-7.68,1.024     c-11.264,2.048-22.528-0.512-31.744-6.656c-1.024-1.024-2.56-0.512-3.584,0.512c-1.024,1.024-0.512,2.56,0.512,3.584     c10.24,6.656,23.04,9.216,35.328,7.168l7.68-1.024c8.192-1.536,16.896-0.512,25.088,3.072l5.632,2.56     c9.216,4.096,19.456,6.144,29.696,6.144c9.216,0,18.432-1.536,28.16-3.584l7.68-3.072c8.192-3.072,16.896-4.096,25.088-2.56     l5.12,1.024c14.336,2.56,29.184-1.024,40.448-10.24l1.024-0.512c3.072-2.56,7.168-3.584,11.264-3.584     c8.704,0.512,17.408-4.096,22.528-11.264l1.274-2.123c3.519,0.699,7.047,1.227,10.502,1.611l5.632,0.512     c5.12,0.512,10.24,3.584,13.312,7.68l0.512,0.512c8.704,11.264,11.264,26.112,6.656,39.936l-1.536,5.12     c-3.072,9.728-3.584,19.968-1.024,29.696l2.048,9.216c4.096,16.384,3.584,33.28-1.024,49.152l-2.56,9.216     c-3.072,11.264-2.56,23.552,1.536,34.816l4.096,11.264C435.225,244.098,434.713,262.53,427.545,278.914z"/><path d="M396.313,210.306c1.536,0,2.56-1.024,2.56-3.584c0-1.024,0-2.56,0-3.584s-1.024-2.56-2.56-2.56     c-1.024,0-2.56,1.024-2.56,2.56s0,3.072,0,4.608S394.777,210.306,396.313,210.306z"/><path d="M402.457,230.786c-1.536,0.512-2.048,1.536-2.048,3.072c0.512,1.536,0.512,3.584,0.512,5.12s1.024,2.56,2.56,2.56     c1.536,0,2.56-1.024,2.56-3.072c0-1.536,0-3.584-0.512-5.632C405.017,231.298,403.993,230.786,402.457,230.786z"/><path d="M402.969,246.146c-1.536-0.512-3.072,0.512-3.072,2.048c-1.024,5.632-3.072,10.752-6.144,15.872     c-0.512,1.024,0,3.072,1.024,3.584c0.512,0.512,1.024,0.512,1.536,0.512c1.024,0,2.048-0.512,2.048-1.024     c3.072-5.632,5.632-11.776,6.656-17.92C405.529,247.682,404.505,246.146,402.969,246.146z"/><path d="M392.217,271.746c-1.024-0.512-3.072,0-3.584,1.024c-2.048,3.072-3.584,7.168-4.608,10.752l-1.536,7.168     c-3.072,15.872-19.968,27.136-39.424,26.112h-2.56c-1.536,0-2.56,1.024-2.56,2.56s1.024,2.56,2.56,2.56h2.56     c1.024,0,1.536,0,2.56,0c20.48,0,38.912-12.288,42.496-30.208l1.536-7.168c0.512-3.072,1.536-6.144,3.584-9.216     C393.753,274.306,393.241,272.258,392.217,271.746z"/><path d="M322.073,319.874l-10.24,3.584c-1.024,0.512-2.048,1.536-1.536,3.072c0.512,1.024,1.536,1.536,2.56,1.536     c0.512,0,0.512,0,0.512,0l10.24-3.584c1.024-0.512,2.048-1.536,1.536-3.072C324.633,320.386,323.609,319.362,322.073,319.874z"/><path d="M297.497,324.994c-3.072,0-6.144-0.512-9.216-1.024c-1.536,0-2.56,0.512-3.072,2.048c0,1.536,0.512,2.56,2.048,3.072     c3.072,0.512,6.656,1.024,10.24,1.024c1.536,0,2.56-1.024,2.56-2.56S299.033,324.994,297.497,324.994z"/><path d="M276.505,319.874c-1.536-1.024-3.072-2.048-4.608-3.072c-1.024-1.024-2.56-0.512-3.584,0.512s-0.512,2.56,0.512,3.584     c1.536,1.024,3.584,2.048,5.12,3.072c0,0.512,0.512,0.512,1.024,0.512c1.024,0,1.536-0.512,2.56-1.024     C278.041,321.922,277.529,320.386,276.505,319.874z"/><path d="M211.993,185.218c5.632,7.168,5.632,17.92,5.12,27.136c0,2.048,0,4.096,0.512,5.632c2.56,8.192,11.264,9.728,15.36,10.24     c0.512,0,0.512,0,1.024,0c20.48,4.096,23.04,10.752,28.672,23.552l1.024,2.56c1.536,3.072,1.536,6.656,1.024,9.216     c-0.512,2.048-1.536,3.072-4.608,3.072c-1.536,0-2.56,1.024-2.56,2.56c0,1.536,1.024,2.56,2.56,2.56     c5.12,0,8.192-2.56,10.752-6.656c1.024-3.584,0.512-8.192-1.024-12.288l-1.024-2.56c-5.632-13.312-9.216-22.016-32.256-26.624     c-0.512-0.512-1.024-0.512-1.536-0.512c-4.608-1.024-9.728-2.048-11.264-6.656c-0.512-1.024-0.512-2.56-0.512-4.096     c0-10.24,0-21.504-6.656-30.208c-4.608-5.632-11.776-9.216-21.504-10.752c-1.536-0.512-2.56,0.512-3.072,2.048     c-0.512,1.536,0.512,3.072,2.048,3.072C202.265,177.538,207.897,180.61,211.993,185.218z"/><path d="M170.521,272.258c-1.024-0.512-2.56,0-3.072,1.536c-1.024,2.56-1.024,5.12-0.512,7.68     c0.512,1.024,1.536,2.048,2.56,2.048c0.512,0,0.512-0.512,0.512,0c1.536-0.512,2.56-1.536,2.048-3.072c0-2.048,0-3.584,0-5.12     C172.569,274.306,172.057,272.77,170.521,272.258z"/><path d="M179.225,258.434c-1.536,1.024-2.56,2.048-3.584,3.072l-1.024,1.024c-1.024,1.024-1.024,2.56,0,3.584     c0.512,0.512,1.536,1.024,2.048,1.024c0.512,0,1.536,0,1.536-0.512l1.024-1.024c1.024-1.024,2.048-2.048,3.584-3.584     c1.024-1.024,1.024-2.56,0-3.584C181.785,257.41,180.249,257.41,179.225,258.434z"/><path d="M179.225,226.178c-2.048-1.536-4.608-3.072-6.144-5.12c-6.656-7.168-6.656-17.408-1.024-27.648     c0.512-1.536,0-3.072-1.024-3.584c-1.536-0.512-3.072,0-3.584,1.024c-7.168,12.288-6.656,24.576,1.536,33.792     c2.048,2.56,4.608,4.608,7.168,6.144c3.072,2.048,6.144,4.096,7.68,7.168c2.56,4.608,2.56,9.216,1.024,13.312     c-0.512,1.536,0,3.072,1.536,3.584c0.512,0,0.512,0,1.024,0c1.024,0,1.536-1.024,2.048-1.536     c2.56-6.144,2.048-11.776-1.024-17.92C186.393,230.786,182.809,228.738,179.225,226.178z"/><path d="M252.953,257.41l-3.072-1.024c-1.024-0.512-2.56,0-3.072,1.536c-0.512,1.024,0,2.56,1.536,3.072l3.584,1.024h0.512     c1.536,0,2.56-1.024,2.048-1.536C255.001,258.946,254.489,257.922,252.953,257.41z"/><path d="M243.737,254.338c-2.048-0.512-3.584-1.024-5.632-1.536c-1.024-0.512-2.56,0-3.072,1.536     c-0.512,1.024,0,2.56,1.536,3.072c2.048,0.512,3.584,1.024,5.632,1.536h0.512c1.024,0,2.048-0.512,2.56-1.536     S245.273,254.85,243.737,254.338z"/><path d="M215.065,272.258c1.024,0,2.048-0.512,2.56-0.512c1.024-1.024,1.024-2.56,0-3.584c-1.024-1.024-2.048-1.024-3.072-0.512     c-1.024-0.512-4.096-2.048-4.608-5.12c-0.512-5.12,0-7.68,2.56-9.728c3.072-2.048,7.168-1.024,11.776,0.512l3.072,1.024     c1.024,0.512,2.56,0,3.072-1.536c0.512-1.024,0-2.56-1.536-3.072l-3.072-1.024c-4.096-1.536-11.264-4.096-16.384,0     c-5.632,4.096-5.632,9.216-4.608,14.336c1.024,4.608,4.608,7.68,7.68,8.704C213.529,272.258,214.553,272.258,215.065,272.258z"/><path d="M279.577,244.61l-2.56,2.048c-1.024,1.024-1.536,2.56-0.512,3.584c0.512,0.512,1.536,1.024,2.048,1.024     c0.512,0,1.024,0,1.536-0.512l2.56-2.048c1.024-1.024,1.536-2.56,0.512-3.584C282.137,244.098,280.601,243.586,279.577,244.61z"/><path d="M290.841,234.37c-1.536,1.536-3.584,3.072-5.12,4.608c-1.024,1.024-1.024,2.56,0,3.584     c0.512,0.512,1.536,1.024,2.048,1.024c0.512,0,1.024,0,1.536-1.024c1.536-1.536,3.584-3.072,5.12-4.608     c1.024-1.024,1.024-2.56,0-3.584S291.865,233.346,290.841,234.37z"/><path d="M299.033,231.298c1.024,1.024,2.56,1.024,3.584,0c2.56-2.56,4.608-5.12,7.168-7.68l1.536-2.048     c4.096-4.608,8.192-9.216,12.8-12.288c6.656-4.608,13.824-6.144,21.504-5.632c2.56,0,4.608,1.024,6.144,2.048     c3.072,3.072,2.048,9.216-0.512,13.824c-3.072,5.632-7.168,11.264-12.288,15.36c-2.56,2.048-5.632,4.096-8.704,6.144     c-6.593,4.564-13.181,8.63-17.286,15.672c-5.315,0.891-10.528,3.167-14.97,5.832c-1.536,1.024-1.536,2.56-1.024,3.584     c0.512,0.512,1.024,1.024,2.048,1.024c0.512,0,1.024-0.512,2.048,0c3.615-2.41,7.549-4.176,11.794-5.079     c-0.475,5.277-0.318,10.554,0.494,15.831c0.512,1.024,1.536,2.048,2.56,2.048c2.048,0,3.072-1.536,2.56-3.072     c-0.988-5.929-1.013-11.386-0.094-17.282c0.194-0.402,0.266-0.805,0.094-1.15c-0.008-0.015-0.018-0.031-0.026-0.046     c-0.019-0.199-0.054-0.385-0.098-0.563c3.662-4.99,9.06-8.591,14.46-12.191c3.072-2.048,6.144-4.096,9.216-6.656     c5.632-4.608,10.24-10.24,13.824-16.896c3.584-6.144,5.12-14.848-0.512-19.968c-2.56-2.56-6.656-3.584-9.216-3.584     c-3.512-0.413-7.022-0.234-10.433,0.419c-0.083-0.146-0.188-0.287-0.319-0.419c-3.072-4.096-4.608-8.704-4.608-13.824     c0-0.512,0-1.536,0-2.56c0-3.584,0-7.168-2.048-10.752c-1.024-1.536-2.56-3.072-4.096-4.096     c-1.024-0.512-1.536-1.024-2.048-1.536c-2.56-2.56-3.584-5.632-3.584-8.192c0-2.107,0.975-3.955,2.406-5.085     c0.051-0.011,0.103-0.024,0.154-0.035l2.048-0.512c1.359-0.453,2.312-1.308,2.161-2.563c0.041-0.311,0.011-0.651-0.113-1.022     c-0.512-1.536-1.536-2.56-3.072-2.048c-1.125,0.25-2.188,0.686-3.162,1.273c-8.878,1.989-18.057,4.071-23.462-2.809     c-1.536-2.048-3.072-4.096-4.608-6.656l-1.024-1.536c-2.048-3.072-4.608-6.144-7.168-8.704c-1.024-1.024-2.56-1.024-3.584,0     c-1.024,1.024-1.024,2.56,0,3.584c2.56,2.56,4.608,5.12,6.144,7.68l1.024,1.536c1.536,2.56,3.072,5.12,5.12,7.68     c4.096,5.12,9.216,6.656,14.848,6.656c2.579,0,5.159-0.39,7.672-0.908c-0.244,0.782-0.42,1.597-0.504,2.444     c0,4.608,1.536,8.704,5.12,12.288c0.512,1.024,1.536,1.536,2.048,2.048c1.024,1.024,2.56,2.048,3.072,3.072     c1.024,2.048,1.024,5.12,1.024,8.192c0,1.024,0,2.048,0,3.072c0,5.551,1.681,11.091,4.269,15.509     c-2.756,1.036-5.396,2.368-7.853,3.947c-5.632,3.584-9.728,8.704-13.824,13.312l-1.536,2.048c-2.048,2.56-4.608,5.12-7.168,7.68     C298.009,228.738,298.009,230.274,299.033,231.298z"/><path d="M252.441,183.17c1.024,0.512,2.56,3.584,3.584,5.632c3.072,5.632,7.68,14.848,18.432,14.848     c3.584,0,7.68-1.024,12.8-3.072c9.216-4.608,11.776-10.24,13.312-14.848c0.512-1.024,0-2.56-1.536-3.072     c-1.024-0.512-2.56,0-3.072,1.536c-1.024,4.096-3.072,8.192-10.752,11.776c-15.872,7.68-20.48-1.024-24.576-9.216     c-2.048-4.096-3.584-7.168-6.656-8.192c-1.024-0.512-2.56,0-3.072,1.536C250.393,181.122,250.905,182.658,252.441,183.17z"/><path d="M291.865,206.722c0.512-1.024,0-2.56-1.536-3.072c-1.024-0.512-2.56,0-3.072,1.536c-1.536,6.144,0,12.8,4.096,17.92     c0.512,0.512,1.536,1.024,2.048,1.024c0.512,0,1.024-0.512,1.024-0.512c1.536-1.024,1.536-2.56,0.512-3.584     C291.865,216.45,290.329,211.33,291.865,206.722z"/><path d="M275.481,121.73c-2.56-1.024-4.608-2.048-7.168-3.072c-1.024-0.512-2.56,0.512-3.072,1.536     c-0.512,1.024,0,2.56,1.536,3.072c2.048,1.024,4.096,2.048,6.144,3.072c0.512,0.512,1.024,0.512,1.536,0.512     c0.512,0,1.536-0.512,2.048-1.536C277.017,123.778,276.505,122.242,275.481,121.73z"/><path d="M321.049,127.874c9.728-1.024,17.408,0.512,20.992,4.096c3.584,3.072,3.072,7.168,3.072,9.216v0.512     c0,8.704-8.192,20.992-13.824,29.184c-0.512,1.024-0.512,3.072,0.512,3.584c0.512,0.512,1.024,0.512,1.536,0.512     c1.024,0,1.536-0.512,2.56-0.512c7.68-11.264,14.848-23.04,14.848-32.768c0.313-1.253,0.428-4.039-0.696-7.184     c0.443-0.399,0.91-0.71,1.208-1.008c1.536-1.024,3.072-2.048,4.608-3.072c1.536-1.024,2.048-2.048,1.024-3.584     s-2.56-1.536-3.584-1.024c-1.536,1.024-3.072,2.048-4.608,3.072c-0.402,0.402-0.804,0.72-1.206,1.026     c-0.409-0.519-0.85-1.034-1.354-1.538c-4.608-4.608-13.312-6.656-25.088-5.632c-5.12,0.512-11.264-3.584-13.312-8.704     c-1.024-1.536-2.048-2.048-3.584-1.536c-1.536,1.024-2.048,2.048-1.536,3.584C305.689,123.266,313.881,128.386,321.049,127.874z"/><path d="M361.497,125.826c0,0,0.512,0,1.536,0c1.536-1.024,2.56-1.536,3.584-2.048c1.024-1.024,1.536-2.56,1.024-3.584     c-1.024-1.024-2.56-1.536-3.584-1.024c-1.024,0.512-2.56,1.536-3.584,2.048c-1.536,1.024-1.536,2.56-1.024,3.584     C359.961,125.314,360.473,125.826,361.497,125.826z"/></g><g transform="matrix(0.13960370421409607 0 0 0.13960370421409607 5 221.99999899455338)" id="L1_96"><path d="M396.804,108.751l-2.048-3.584c-14.336-22.016-37.888-35.84-64-38.4l-16.896-1.536     c-15.872-1.536-31.232,5.632-39.936,18.432c-8.192,11.776-9.728,26.624-4.608,39.936l11.776,30.72     c4.952,12.952,6.213,27.036,3.796,40.569c-24.535,27.773-38.502,64.511-36.052,101.255l10.24,118.784     c0,1.536,1.024,2.56,2.56,2.56s2.56-1.024,2.56-2.56l-10.24-118.784c-2.202-32.152,8.486-63.918,27.81-89.446     c-0.222,0.632-0.434,1.267-0.674,1.894c-4.096,10.752-3.072,23.552,2.048,34.304l7.68,16.896     c-8.192,18.432-6.656,38.912,4.608,56.32c11.264,16.896,29.696,27.136,49.664,27.136c4.608,0,8.704-0.512,12.8-1.024l15.36-3.072     c23.552-5.12,41.472-24.064,46.08-47.616l7.168-38.4C435.716,202.447,425.476,151.247,396.804,108.751z M416.772,250.575     l-7.168,38.4c-4.096,19.968-18.944,35.328-38.4,39.424l-15.36,3.072c-3.584,0.512-7.168,1.024-10.752,1.024     c-16.384,0-31.744-8.192-40.96-22.528c-9.109-13.663-10.7-30.824-3.815-46.051c4.431,5.324,9.248,9.455,15.591,13.795     c0.512,0.512,1.024,0.512,1.536,0.512c1.024,0,1.536-0.512,2.048-1.024c1.024-1.024,0.512-2.56-0.512-3.584     c-7.37-4.914-12.448-9.833-17.329-16.579c-0.03-0.106-0.044-0.211-0.079-0.317l-9.216-18.432     c-4.096-8.192-4.608-17.408-1.536-26.112c0.811-2.109,1.518-4.239,2.157-6.378c3.48,6.821,8.121,12.96,13.715,18.154     c0.512,0.512,1.024,0.512,1.536,0.512c0.512,0,1.024-0.512,2.56-0.512c1.024-1.024,1.024-2.56,0-3.584     c-6.656-6.656-11.776-13.824-15.36-22.528c-0.122-0.183-0.244-0.35-0.367-0.504c0.909-4.747,1.395-9.535,1.483-14.328     c2.761-7.097,8.768-12.869,16.292-15.377l8.192-2.56c1.024-0.512,2.048-1.536,1.536-3.072c-0.512-1.024-1.536-2.048-3.072-1.536     l-8.192,2.56c-6.222,1.675-11.417,5.267-15.155,10.013c-0.345-3.429-0.902-6.846-1.669-10.238     c1.899-5.439,4.842-10.453,8.633-14.623l8.192-9.216c1.024-1.024,1.024-2.56,0-3.584s-2.56-1.024-3.584,0l-8.192,9.216     c-2.836,3.093-5.28,6.577-7.207,10.383c-0.464-1.419-0.957-2.834-1.497-4.239l-11.776-30.72     c-4.096-10.24-2.56-21.504,3.584-30.72c6.144-9.216,16.384-14.336,27.136-14.336c1.024,0,2.048,0.512,3.584,0.512l16.896,1.536     c23.04,2.048,43.52,14.336,56.32,33.792l2.048,3.072C415.748,154.319,425.476,202.959,416.772,250.575z"/><path d="M120.324,94.927c0.512,0,1.536,0,2.048-1.024c1.024-1.024,0.512-2.56-0.512-3.584l-3.584-2.56     c-1.024-1.024-2.56-0.512-3.584,0.512s-0.512,2.56,0.512,3.584l3.584,2.56C119.3,94.927,119.812,94.927,120.324,94.927z"/><path d="M127.492,211.663c1.024-1.024,1.536-2.56,0.512-3.584c-1.024-1.024-2.56-1.536-3.584-0.512     c-1.536,1.024-2.56,1.536-4.096,2.56c-1.536,1.024-1.536,2.56-1.024,3.584c0.512,0.512,1.024,1.024,2.048,1.024     c0.512,0,0.512,0,2.048-0.512C124.932,213.711,125.956,212.687,127.492,211.663z"/><path d="M332.804,280.783l-4.096-2.048c-1.536-0.512-3.072-0.512-3.584,1.024c-0.512,1.536,0,3.072,1.024,3.584l4.096,2.048     c0,0.512,0.512,0.512,1.024,0.512c1.024,0,2.048-0.512,2.56-1.536C334.34,282.831,333.828,281.295,332.804,280.783z"/><path d="M322.052,229.071c-1.536-1.024-3.072-1.536-4.096-2.56c-1.024-1.024-2.56-0.512-3.584,0.512     c-1.024,1.024-0.512,2.56,0.512,3.584s2.56,1.536,4.096,2.56c0.512,0.512,1.024,0.512,1.536,0.512c1.024,0,1.536,0,2.56-1.024     C323.588,231.119,323.076,229.583,322.052,229.071z"/><path d="M160.772,136.399c-0.2-0.2-0.423-0.349-0.655-0.471c-0.277-0.872-0.566-1.741-0.881-2.601l-0.512-2.048     c-4.608-12.288-4.096-26.112,1.536-37.888l10.24-21.504c6.656-13.312,5.632-29.184-2.56-41.472     c-8.704-13.824-24.064-21.504-40.448-19.968l-3.072,0.512c-38.4,3.072-71.68,25.6-90.112,58.88l-10.24,19.456     C4.1,126.159-3.58,167.119,1.54,208.591l1.024,7.168c5.12,38.912,35.328,69.632,74.24,74.752l17.408,2.56     c2.56,0.512,5.632,0.512,8.192,0.512c18.944,0,36.864-9.216,47.616-25.088c11.264-15.36,14.336-34.816,8.704-53.248     l-3.479-10.669l6.039,5.549c9.216,8.704,14.848,20.992,15.36,33.792l3.584,129.024c0,1.536,1.024,2.56,2.56,2.56     c1.536,0,2.56-1.024,2.56-2.048l-3.072-129.536c-0.512-14.336-6.656-28.16-17.408-37.376l-12.825-11.785l-0.999-3.063     l5.632-10.752c5.749-11.115,7.48-23.665,5.625-35.716l14.855,15.236c19.968,21.504,32.256,50.688,30.208,80.384l-7.168,78.336     c0,1.024,1.024,2.56,2.56,2.56s2.56-1.024,2.56-2.048l7.168-78.336c2.048-31.232-10.24-61.952-31.744-84.48L160.772,136.399z      M142.852,262.863c-10.752,14.848-28.672,22.528-46.592,19.968l-17.408-2.56c-34.304-4.608-60.928-31.744-65.536-66.048     l-1.024-7.168c-5.12-38.912,2.048-77.824,20.992-112.64l10.24-19.456c16.896-30.72,47.104-50.688,81.92-53.76l2.56-0.512     c1.024,0,2.048,0,3.072,0c11.264,0,22.016,6.144,28.16,15.36c6.144,9.728,6.656,21.504,2.048,31.744l-10.24,21.504     c-3.825,8.239-5.61,17.323-5.377,26.378c-4.057-6.511-8.979-12.477-14.591-17.674c-1.024-1.024-2.56-1.024-3.584,0     c-1.024,1.024-1.024,2.56,0,3.584c12.436,11.939,21.47,27.747,24.323,44.601c-5.426-6.566-13.659-10.809-22.787-10.809h-8.704     c-1.536,0-2.56,1.024-2.56,2.56s1.024,2.56,2.56,2.56h8.704c11.264,0,20.992,8.192,23.552,18.944v0.512     c0.046,0.092,0.101,0.183,0.154,0.274c-0.646,5.551-2.211,11.008-4.762,16.11l-0.146,0.305c-0.387,0.287-0.698,0.692-0.878,1.231     c-3.584,8.704-8.704,16.384-15.36,22.528c-1.024,1.024-1.024,2.56,0,3.584c0.512,0.512,1.536,1.024,2.048,1.024     c0.512,0,1.536,0,2.048-1.024c2.577-2.393,4.946-4.991,7.102-7.757l2.083,6.509l0.031,0.736     c0.512,13.824-5.12,27.136-16.384,35.84l-4.608,3.584c-1.024,1.024-1.536,2.56-0.512,3.584c0.512,0.512,1.536,1.024,2.048,1.024     c0.512,0,1.024,0,1.536,0l4.608-3.584c8.945-7.081,15.157-17.151,17.491-28.029l0.941,2.941     C154.628,234.191,152.068,250.063,142.852,262.863z"/><path d="M201.22,337.615c-1.024,0-2.56,1.024-2.56,2.56l-1.024,15.872c0,1.024,1.024,2.56,2.56,2.56     c1.024,0,2.56-1.024,2.56-2.56l1.024-15.872C203.78,339.151,202.756,337.615,201.22,337.615z"/><path d="M199.684,363.727c-1.024,0-2.56,1.024-2.56,2.56l-0.512,5.12c0,1.024,1.024,2.56,2.56,2.56     c1.024,0,2.048-1.024,2.56-2.56l0.512-5.12C202.244,365.263,201.22,363.727,199.684,363.727z"/><path d="M281.092,284.879c-1.024,0-2.56,1.024-2.56,2.56v6.656c0,1.536,1.024,2.56,2.56,2.56c1.024,0,2.56-1.024,2.56-2.56     v-6.656C283.652,285.903,282.628,284.879,281.092,284.879z"/><path d="M280.58,305.359c-1.536,0-2.56,1.024-2.56,2.56l-2.56,109.056c0,1.536,1.024,2.56,2.56,2.56     c1.024,0,2.048-1.536,2.56-2.56l2.56-109.056C283.14,306.383,282.116,305.359,280.58,305.359z"/></g></defs><g fi:class="KUsePattern"><pattern id="pattern_L1_92" width="350" height="350" patternUnits="userSpaceOnUse"><use xlink:href="#L1_92" x="-350" y="-350"/><use xlink:href="#L1_92" x="0" y="-350"/><use xlink:href="#L1_92" x="350" y="-350"/><use xlink:href="#L1_92" x="-350" y="0"/><use xlink:href="#L1_92" x="0" y="0"/><use xlink:href="#L1_92" x="350" y="0"/><use xlink:href="#L1_92" x="-350" y="350"/><use xlink:href="#L1_92" x="0" y="350"/><use xlink:href="#L1_92" x="350" y="350"/></pattern><rect x="0" y="0" width="100%" height="100%" fill="url(#pattern_L1_92)"/></g><g fi:class="KUsePattern"><pattern id="pattern_L1_93" width="350" height="350" patternUnits="userSpaceOnUse"><use xlink:href="#L1_93" x="-350" y="-350"/><use xlink:href="#L1_93" x="0" y="-350"/><use xlink:href="#L1_93" x="350" y="-350"/><use xlink:href="#L1_93" x="-350" y="0"/><use xlink:href="#L1_93" x="0" y="0"/><use xlink:href="#L1_93" x="350" y="0"/><use xlink:href="#L1_93" x="-350" y="350"/><use xlink:href="#L1_93" x="0" y="350"/><use xlink:href="#L1_93" x="350" y="350"/></pattern><rect x="0" y="0" width="100%" height="100%" fill="url(#pattern_L1_93)"/></g><g fi:class="KUsePattern"><pattern id="pattern_L1_94" width="350" height="350" patternUnits="userSpaceOnUse"><use xlink:href="#L1_94" x="-350" y="-350"/><use xlink:href="#L1_94" x="0" y="-350"/><use xlink:href="#L1_94" x="350" y="-350"/><use xlink:href="#L1_94" x="-350" y="0"/><use xlink:href="#L1_94" x="0" y="0"/><use xlink:href="#L1_94" x="350" y="0"/><use xlink:href="#L1_94" x="-350" y="350"/><use xlink:href="#L1_94" x="0" y="350"/><use xlink:href="#L1_94" x="350" y="350"/></pattern><rect x="0" y="0" width="100%" height="100%" fill="url(#pattern_L1_94)"/></g><g fi:class="KUsePattern"><pattern id="pattern_L1_95" width="350" height="350" patternUnits="userSpaceOnUse"><use xlink:href="#L1_95" x="-350" y="-350"/><use xlink:href="#L1_95" x="0" y="-350"/><use xlink:href="#L1_95" x="350" y="-350"/><use xlink:href="#L1_95" x="-350" y="0"/><use xlink:href="#L1_95" x="0" y="0"/><use xlink:href="#L1_95" x="350" y="0"/><use xlink:href="#L1_95" x="-350" y="350"/><use xlink:href="#L1_95" x="0" y="350"/><use xlink:href="#L1_95" x="350" y="350"/></pattern><rect x="0" y="0" width="100%" height="100%" fill="url(#pattern_L1_95)"/></g><g fi:class="KUsePattern"><pattern id="pattern_L1_96" width="350" height="350" patternUnits="userSpaceOnUse"><use xlink:href="#L1_96" x="-350" y="-350"/><use xlink:href="#L1_96" x="0" y="-350"/><use xlink:href="#L1_96" x="350" y="-350"/><use xlink:href="#L1_96" x="-350" y="0"/><use xlink:href="#L1_96" x="0" y="0"/><use xlink:href="#L1_96" x="350" y="0"/><use xlink:href="#L1_96" x="-350" y="350"/><use xlink:href="#L1_96" x="0" y="350"/><use xlink:href="#L1_96" x="350" y="350"/></pattern><rect x="0" y="0" width="100%" height="100%" fill="url(#pattern_L1_96)"/></g></svg>