<svg width="166" height="32" viewBox="0 0 166 32" fill="none" xmlns="http://www.w3.org/2000/svg">
<g filter="url(#filter0_d)">
<path d="M11.12 20.872C11.12 21.064 10.448 21.16 9.104 21.16C7.504 21.096 6.704 20.992 6.704 20.848V12.352H5.48C5.16 12.352 5 11.8 5 10.696C5 10.408 5.024 10.056 5.072 9.64C5.136 9.224 5.256 9.016 5.432 9.016H6.704V6.904C6.704 6.584 7.376 6.424 8.72 6.424C10.08 6.424 10.76 6.552 10.76 6.808V8.344L10.784 9.016H12.824C13.096 9.016 13.232 9.576 13.232 10.696C13.232 11.816 13.096 12.376 12.824 12.376H11.12V20.872Z" fill="white"/>
<path d="M23.5079 20.368C22.4999 20.96 21.2039 21.256 19.6199 21.256C18.0359 21.256 16.6999 20.72 15.6119 19.648C14.5239 18.56 13.9799 17.064 13.9799 15.16C13.9799 13.24 14.4999 11.696 15.5399 10.528C16.5959 9.36 17.9239 8.776 19.5239 8.776C21.1239 8.776 22.3559 9.184 23.2199 10C24.0999 10.816 24.5399 11.808 24.5399 12.976C24.5399 15.568 23.0519 16.864 20.0759 16.864H18.4199C18.4199 17.344 18.5479 17.68 18.8039 17.872C19.0759 18.048 19.4679 18.136 19.9799 18.136C21.0999 18.136 22.1639 17.88 23.1719 17.368C23.1879 17.352 23.2599 17.464 23.3879 17.704C23.7719 18.392 23.9639 18.976 23.9639 19.456C23.9639 19.92 23.8119 20.224 23.5079 20.368ZM20.5079 13.432C20.5079 12.76 20.1799 12.424 19.5239 12.424C19.2199 12.424 18.9559 12.52 18.7319 12.712C18.5239 12.888 18.4199 13.152 18.4199 13.504V14.248H19.7159C20.2439 14.248 20.5079 13.976 20.5079 13.432Z" fill="white"/>
<path d="M27.6198 12.304C27.1718 11.504 26.9478 10.856 26.9478 10.36C26.9478 9.848 27.0838 9.52 27.3558 9.376C28.2678 8.976 29.5158 8.776 31.0998 8.776C32.6998 8.776 33.8278 9.152 34.4838 9.904C35.1398 10.64 35.4678 11.736 35.4678 13.192V16.984H36.2838C36.5558 16.984 36.7638 17.144 36.9078 17.464C37.0678 17.784 37.1478 18.224 37.1478 18.784C37.1478 19.344 37.0038 19.896 36.7158 20.44C36.4438 20.984 36.0678 21.256 35.5878 21.256C34.7238 21.256 34.0278 21.024 33.4998 20.56C33.2598 20.368 33.0758 20.136 32.9478 19.864C32.2118 20.792 31.0678 21.256 29.5158 21.256C28.3478 21.256 27.3638 20.84 26.5638 20.008C25.7638 19.176 25.3638 18.192 25.3638 17.056C25.3638 14.448 26.9238 13.144 30.0438 13.144H31.3638V12.904C31.3638 12.488 31.2918 12.224 31.1478 12.112C31.0198 11.984 30.7078 11.92 30.2118 11.92C29.6038 11.92 28.7398 12.048 27.6198 12.304ZM29.5398 16.72C29.5398 17.072 29.6358 17.344 29.8278 17.536C30.0198 17.712 30.2598 17.8 30.5478 17.8C30.8518 17.8 31.1238 17.68 31.3638 17.44V15.592H30.6918C29.9238 15.592 29.5398 15.968 29.5398 16.72Z" fill="white"/>
<path d="M49.3783 20.896C49.3783 21.008 48.6903 21.064 47.3143 21.064C45.9543 21.064 45.2743 20.992 45.2743 20.848V13.864C45.2743 13.064 45.0103 12.664 44.4823 12.664C44.2103 12.664 43.8503 12.84 43.4023 13.192V20.872C43.4023 21.032 42.7142 21.112 41.3382 21.112C39.9782 21.112 39.2983 21.024 39.2983 20.848V13H38.6982C38.1702 13 37.9062 12.448 37.9062 11.344C37.9062 10.848 38.0023 10.344 38.1943 9.832C38.4503 9.128 38.8662 8.776 39.4422 8.776C40.0182 8.776 40.5703 8.928 41.0983 9.232C41.6423 9.536 41.9702 9.824 42.0822 10.096C43.0742 9.216 44.1702 8.776 45.3703 8.776C46.5863 8.776 47.5623 9.152 48.2983 9.904C49.1623 9.152 50.2023 8.776 51.4183 8.776C54.0583 8.776 55.3783 10.384 55.3783 13.6V20.896C55.3783 21.008 54.6903 21.064 53.3143 21.064C51.9543 21.064 51.2743 20.992 51.2743 20.848V13.864C51.2743 13.064 51.0103 12.664 50.4823 12.664C50.1943 12.664 49.8262 12.84 49.3783 13.192V20.896Z" fill="white"/>
<path d="M62.0638 4.288C62.0638 4.096 62.7518 4 64.1278 4C65.5197 4 66.2158 4.104 66.2158 4.312V8.968C66.9038 8.84 67.3918 8.776 67.6798 8.776C71.0397 8.776 72.7197 10.704 72.7197 14.56C72.7197 16.704 72.1997 18.36 71.1597 19.528C70.1357 20.68 68.6717 21.256 66.7677 21.256C64.8797 21.256 63.3118 20.832 62.0638 19.984V4.288ZM67.0078 12.52C66.7358 12.52 66.4718 12.608 66.2158 12.784V17.368C66.4398 17.464 66.6718 17.512 66.9118 17.512C67.1678 17.512 67.4238 17.416 67.6798 17.224C68.1278 16.904 68.3517 16.16 68.3517 14.992C68.3517 13.344 67.9038 12.52 67.0078 12.52Z" fill="white"/>
<path d="M75.4445 19.6C74.4525 18.496 73.9565 16.968 73.9565 15.016C73.9565 13.064 74.4525 11.536 75.4445 10.432C76.4525 9.328 77.8045 8.776 79.5005 8.776C81.1965 8.776 82.5405 9.328 83.5325 10.432C84.5245 11.536 85.0205 13.064 85.0205 15.016C85.0205 16.968 84.5245 18.496 83.5325 19.6C82.5405 20.704 81.1965 21.256 79.5005 21.256C77.8045 21.256 76.4525 20.704 75.4445 19.6ZM79.5005 12.784C78.6045 12.784 78.1565 13.52 78.1565 14.992C78.1565 16.464 78.6045 17.2 79.5005 17.2C80.4125 17.2 80.8685 16.464 80.8685 14.992C80.8685 13.52 80.4125 12.784 79.5005 12.784Z" fill="white"/>
<path d="M87.7492 19.6C86.7572 18.496 86.2612 16.968 86.2612 15.016C86.2612 13.064 86.7572 11.536 87.7492 10.432C88.7572 9.328 90.1092 8.776 91.8052 8.776C93.5012 8.776 94.8452 9.328 95.8372 10.432C96.8292 11.536 97.3252 13.064 97.3252 15.016C97.3252 16.968 96.8292 18.496 95.8372 19.6C94.8452 20.704 93.5012 21.256 91.8052 21.256C90.1092 21.256 88.7572 20.704 87.7492 19.6ZM91.8052 12.784C90.9092 12.784 90.4612 13.52 90.4612 14.992C90.4612 16.464 90.9092 17.2 91.8052 17.2C92.7172 17.2 93.1732 16.464 93.1732 14.992C93.1732 13.52 92.7172 12.784 91.8052 12.784Z" fill="white"/>
<path d="M104.542 20.872C104.542 21.064 103.87 21.16 102.526 21.16C100.926 21.096 100.126 20.992 100.126 20.848V12.352H98.9019C98.5819 12.352 98.4219 11.8 98.4219 10.696C98.4219 10.408 98.4459 10.056 98.4939 9.64C98.5579 9.224 98.6779 9.016 98.8539 9.016H100.126V6.904C100.126 6.584 100.798 6.424 102.142 6.424C103.502 6.424 104.182 6.552 104.182 6.808V8.344L104.206 9.016H106.246C106.518 9.016 106.654 9.576 106.654 10.696C106.654 11.816 106.518 12.376 106.246 12.376H104.542V20.872Z" fill="white"/>
<path d="M111.794 15.064C111.794 16.632 112.386 17.416 113.57 17.416C114.338 17.416 114.978 17.264 115.49 16.96C115.73 16.96 115.922 17.376 116.066 18.208C116.226 19.024 116.306 19.584 116.306 19.888C116.306 20.176 116.266 20.368 116.186 20.464C115.338 20.992 114.178 21.256 112.706 21.256C111.234 21.256 109.978 20.712 108.938 19.624C107.914 18.52 107.402 17.024 107.402 15.136C107.402 13.232 107.906 11.696 108.914 10.528C109.938 9.36 111.29 8.776 112.97 8.776C114.666 8.776 115.842 9.184 116.498 10C116.642 10.176 116.714 10.44 116.714 10.792C116.714 11.128 116.65 11.544 116.522 12.04C116.234 13.064 115.858 13.656 115.394 13.816C115.33 13.832 115.234 13.84 115.106 13.84C114.994 13.84 114.85 13.744 114.674 13.552C114.05 12.928 113.546 12.616 113.162 12.616C112.794 12.616 112.474 12.808 112.202 13.192C111.93 13.576 111.794 14.2 111.794 15.064Z" fill="white"/>
<path d="M119.542 12.304C119.094 11.504 118.87 10.856 118.87 10.36C118.87 9.848 119.006 9.52 119.278 9.376C120.19 8.976 121.438 8.776 123.022 8.776C124.622 8.776 125.75 9.152 126.406 9.904C127.062 10.64 127.39 11.736 127.39 13.192V16.984H128.206C128.478 16.984 128.686 17.144 128.83 17.464C128.99 17.784 129.07 18.224 129.07 18.784C129.07 19.344 128.926 19.896 128.638 20.44C128.366 20.984 127.99 21.256 127.51 21.256C126.646 21.256 125.95 21.024 125.422 20.56C125.182 20.368 124.998 20.136 124.87 19.864C124.134 20.792 122.99 21.256 121.438 21.256C120.27 21.256 119.286 20.84 118.486 20.008C117.686 19.176 117.286 18.192 117.286 17.056C117.286 14.448 118.846 13.144 121.966 13.144H123.286V12.904C123.286 12.488 123.214 12.224 123.07 12.112C122.942 11.984 122.63 11.92 122.134 11.92C121.526 11.92 120.662 12.048 119.542 12.304ZM121.462 16.72C121.462 17.072 121.558 17.344 121.75 17.536C121.942 17.712 122.182 17.8 122.47 17.8C122.774 17.8 123.046 17.68 123.286 17.44V15.592H122.614C121.846 15.592 121.462 15.968 121.462 16.72Z" fill="white"/>
<path d="M141.3 20.896C141.3 21.008 140.612 21.064 139.236 21.064C137.876 21.064 137.196 20.992 137.196 20.848V13.864C137.196 13.064 136.932 12.664 136.404 12.664C136.132 12.664 135.772 12.84 135.324 13.192V20.872C135.324 21.032 134.636 21.112 133.26 21.112C131.9 21.112 131.22 21.024 131.22 20.848V13H130.62C130.092 13 129.828 12.448 129.828 11.344C129.828 10.848 129.924 10.344 130.116 9.832C130.372 9.128 130.788 8.776 131.364 8.776C131.94 8.776 132.492 8.928 133.02 9.232C133.564 9.536 133.892 9.824 134.004 10.096C134.996 9.216 136.092 8.776 137.292 8.776C138.508 8.776 139.484 9.152 140.22 9.904C141.084 9.152 142.124 8.776 143.34 8.776C145.98 8.776 147.3 10.384 147.3 13.6V20.896C147.3 21.008 146.612 21.064 145.236 21.064C143.876 21.064 143.196 20.992 143.196 20.848V13.864C143.196 13.064 142.932 12.664 142.404 12.664C142.116 12.664 141.748 12.84 141.3 13.192V20.896Z" fill="white"/>
<path d="M154.502 25.384C154.502 25.496 153.814 25.552 152.438 25.552C151.078 25.552 150.398 25.496 150.398 25.384V13.024H149.582C149.198 13.024 148.934 12.672 148.79 11.968C148.742 11.744 148.718 11.456 148.718 11.104C148.718 10.752 148.83 10.336 149.054 9.856C149.374 9.152 149.886 8.8 150.59 8.8C151.054 8.8 151.478 8.912 151.862 9.136C152.262 9.344 152.534 9.544 152.678 9.736C152.838 9.912 152.918 10.016 152.918 10.048C153.99 9.216 155.15 8.8 156.398 8.8C157.646 8.8 158.718 9.288 159.614 10.264C160.51 11.224 160.958 12.72 160.958 14.752C160.958 16.768 160.51 18.336 159.614 19.456C158.718 20.56 157.582 21.112 156.206 21.112C155.582 21.112 155.014 21.08 154.502 21.016V25.384ZM155.486 13C155.214 13 154.95 13.088 154.694 13.264V17.512C154.966 17.544 155.182 17.56 155.342 17.56C155.518 17.56 155.654 17.56 155.75 17.56C156.406 17.496 156.734 16.656 156.734 15.04C156.734 13.68 156.318 13 155.486 13Z" fill="white"/>
</g>
<defs>
<filter id="filter0_d" x="0" y="0" width="165.958" height="31.552" filterUnits="userSpaceOnUse" color-interpolation-filters="sRGB">
<feFlood flood-opacity="0" result="BackgroundImageFix"/>
<feColorMatrix in="SourceAlpha" type="matrix" values="0 0 0 0 0 0 0 0 0 0 0 0 0 0 0 0 0 0 127 0"/>
<feOffset dy="1"/>
<feGaussianBlur stdDeviation="2.5"/>
<feColorMatrix type="matrix" values="0 0 0 0 0 0 0 0 0 0 0 0 0 0 0 0 0 0 0.1 0"/>
<feBlend mode="normal" in2="BackgroundImageFix" result="effect1_dropShadow"/>
<feBlend mode="normal" in="SourceGraphic" in2="effect1_dropShadow" result="shape"/>
</filter>
</defs>
</svg>
